<svg width="60" height="60" viewBox="0 0 60 60" fill="none" xmlns="http://www.w3.org/2000/svg">
<g clip-path="url(#clip0_5208_92)">
<path d="M49.7409 19.4257C50.6577 18.4327 51.8859 16.9226 53.3516 16.8415C54.9294 16.7543 55.566 18.5094 55.6792 19.8029C55.7868 21.0318 55.7709 22.2148 55.7804 23.4463L55.8166 23.5262C55.7581 24.0188 55.7743 25.9194 55.7862 26.4731C55.8086 27.5214 55.7068 29.3815 55.8483 30.3407C55.9817 30.182 55.9056 26.0022 56.003 25.4614C56.0923 24.9651 55.8853 23.8297 56.089 23.1976C56.0964 23.0275 56.0816 22.841 56.1693 22.7065C56.2049 22.9624 56.2136 23.0531 56.2012 23.3096L56.2488 23.3581C56.3031 27.3018 56.3013 31.2461 56.2434 35.1898C56.2245 35.4634 56.2218 35.5689 56.1408 35.828L56.1436 35.7921L56.1023 35.8454C56.0105 35.369 56.17 34.0832 56.0106 33.4272C55.992 32.8464 56.0482 31.1454 56.002 30.7892L55.9184 30.7112L55.8152 30.7526C55.7411 30.9809 55.783 36.4987 55.7705 37.2692C55.7651 37.9082 55.8858 38.9026 55.6282 39.4767C55.3182 40.1678 54.6537 40.81 54.1639 41.3829C53.7704 41.8431 53.4181 42.3388 53.021 42.794C52.6166 43.2576 52.1655 43.6787 51.7572 44.1385C51.304 44.6488 50.9144 45.2111 50.4721 45.7303C49.9292 46.3675 46.162 50.5186 46.1514 50.9737C46.1487 51.0888 46.163 51.1789 46.2463 51.2663C46.2539 51.2744 46.2644 51.2792 46.2736 51.2855L46.118 51.3624C46.1058 51.487 46.0901 51.6366 46.1612 51.7466C46.8848 52.1643 48.4275 51.0686 48.9182 52.6541C49.0057 53.5136 48.9664 54.9052 48.9681 55.7939C48.9698 56.7055 49.0089 58.2818 48.8598 59.1405C48.5216 59.2331 47.9014 59.3936 47.5683 59.2507C47.6108 59.0104 47.5742 58.0486 47.5558 57.7405C47.4706 56.3203 47.7358 54.4868 47.2924 53.1498C47.2326 52.9696 44.6556 52.9475 44.359 52.9631C44.0862 52.9058 43.7622 52.8847 43.4812 52.8583C41.7168 52.8396 39.9523 52.8322 38.1878 52.8361C37.4767 52.8361 35.9009 52.8028 35.2716 52.9107C34.6956 52.9262 33.9317 53.0363 33.301 53.0655C32.9317 53.5492 32.9515 53.5766 32.9839 54.1741C32.9753 55.0949 33.0174 57.1591 32.8912 57.9911C32.6821 58.1534 32.3041 58.0842 32.1361 57.8782C32.241 57.8341 32.2615 57.8471 32.3129 57.7687C31.9513 57.6012 31.819 57.7425 31.5481 57.6423C31.3988 57.2688 31.5433 56.8262 31.4181 56.391C31.3394 55.3656 31.4671 54.1406 31.4076 53.1201C31.2833 50.9884 31.8771 51.6946 33.6214 51.3344C33.6693 50.8212 33.6467 50.0587 33.6607 49.5213C33.7058 47.873 33.7281 46.2242 33.7274 44.5753C33.7329 43.9861 33.7153 42.828 33.7792 42.2861C33.9649 42.4003 34.0101 42.4609 34.2014 42.3808C34.2644 42.2084 34.2572 42.2835 34.1787 42.0654C33.9923 41.8999 34.0445 41.9485 33.7671 41.9037C34.7437 41.6635 35.1713 40.5073 35.8162 39.8884C37.1747 38.5848 38.3277 37.0997 39.5988 35.7386C40.2081 35.0863 41.6569 35.0723 42.3927 34.3329C43.3027 33.4184 44.4442 32.6901 45.1696 31.5866C45.3641 31.3009 45.6181 31.017 45.8513 30.7568C46.4951 30.5381 47.2008 30.4823 47.8783 30.3964C48.5132 28.9295 49.0229 27.8624 48.9963 26.2515C49.0535 25.8184 48.8913 25.2918 48.8555 24.8466C48.798 24.1309 48.7625 21.1378 48.9788 20.5728C49.1326 20.1712 49.5094 19.8422 49.7207 19.4625L49.7409 19.4257ZM49.9065 22.6481C49.7155 22.8661 49.7835 23.4847 49.7072 23.8466L49.7117 23.5899C49.6549 24.0079 49.6345 25.2706 49.8776 25.5925C50.1128 25.7334 50.1626 25.7046 50.2281 25.9051L50.1803 26.1439L50.2566 26.2121L50.2903 26.02L50.3335 25.9986L50.3692 26.31L50.4145 26.3427L50.4763 26.0977C50.5416 26.4037 50.4288 26.8033 50.4305 27.1352C50.4318 27.3887 50.4852 27.5661 50.5021 27.7972C50.4868 27.901 49.7843 30.273 49.7562 30.3331C49.3938 30.9787 49.3017 31.1832 49.9827 31.5371C50.2008 31.6504 50.4387 32.8021 50.6715 33.1514L50.7281 33.1781L50.7767 33.0165C50.8572 33.0464 51.047 33.4025 51.1519 33.5438C51.4506 36.0792 50.6498 36.5168 48.9117 38.1113C48.386 38.5936 47.8704 39.1279 47.3384 39.6078C46.7609 40.1306 46.2602 40.447 45.7474 41.0783C45.3807 41.3395 44.8411 42.0587 44.2159 41.905C43.6795 41.7731 44.0417 40.759 44.1486 40.4073C44.986 39.8859 47.1433 38.0225 47.6261 37.209C48.0306 36.6795 49.4841 35.522 49.7092 35.0575C49.7719 35.0043 49.8129 34.9479 49.8659 34.8846C49.9469 34.5213 49.9164 33.1289 49.9039 32.6874C49.9012 32.5945 49.7211 32.5381 49.6202 32.4795L49.651 32.3067C49.3747 31.7778 47.8329 31.7622 47.31 31.9121C47.0897 31.9752 46.952 32.1504 46.853 32.3427C45.5293 32.9152 44.3572 35.0062 43.0698 35.9122C42.2878 36.4626 40.6396 36.8046 40.268 37.276C39.1551 38.6877 37.765 40.0421 36.6022 41.371C36.1934 41.3802 35.2255 42.4772 35.214 42.6466C35.1607 43.4312 35.0692 44.6856 35.1459 45.4464C35.2945 46.9199 34.9077 49.699 35.1604 51.0172C35.3261 51.4815 35.4213 51.3192 35.8957 51.3572C35.6695 51.3829 35.3952 51.3857 35.2269 51.5267L35.1873 51.64C35.3403 51.8609 35.6685 51.839 35.907 51.8086C36.1964 51.8058 36.5464 51.811 36.8308 51.798C38.9049 51.8235 41.1877 51.8407 43.2617 51.7955C43.4864 51.8021 43.7392 51.8158 43.9607 51.7982C44.191 51.8475 44.2672 51.8224 44.4548 51.732L44.4695 51.5424L44.4736 51.5422C44.1924 51.4976 43.9121 51.4479 43.6328 51.393C43.7791 51.3932 44.3004 51.4077 44.3569 51.2221C44.5592 50.5571 44.6255 50.1338 45.104 49.5859C45.4336 49.2083 45.7396 48.6717 46.1053 48.3045C47.2001 47.4182 47.8318 46.4137 48.6287 45.283C48.7954 45.0287 49.8295 44.3231 49.9303 44.133C50.5244 43.0132 51.3834 42.2722 52.1839 41.3804C52.4455 41.0889 54.0636 39.0757 54.0904 38.8653C54.2814 37.3685 54.1745 35.6309 54.2255 34.1111C54.2488 29.7497 54.2902 25.3991 54.1751 21.0426C54.156 20.3205 53.9209 19.3876 53.864 18.5606C53.5458 18.5519 53.2187 18.5289 52.9001 18.5106C52.5132 18.8207 52.1548 19.105 51.8133 19.4681C50.757 20.5911 50.0966 21.0298 49.9065 22.6481ZM54.4944 35.856C54.5342 36.3505 54.4454 37.3263 54.5867 37.7824C54.7298 37.3575 54.7504 35.5629 54.7209 35.0672C54.7834 31.0412 54.7834 27.0145 54.7212 22.9886C54.7263 22.9188 54.7308 22.8489 54.7346 22.7791C54.751 22.4811 54.7517 21.5338 54.5676 21.329C54.4678 21.8143 54.4679 22.0888 54.497 22.5676C54.4506 27.0267 54.5 31.4067 54.4944 35.856ZM48.4001 55.465C48.3982 55.8419 48.3481 58.0662 48.4582 58.2338C48.5679 58.0821 48.6046 58.003 48.5835 57.7882C48.5642 57.1968 48.5339 56.6095 48.5187 56.0184C48.5227 56.0814 48.5351 56.1113 48.5134 56.1587C48.498 56.0499 48.4379 55.5431 48.4001 55.465ZM34.0241 43.3698C34.0221 43.6118 34.0026 44.3631 34.0402 44.558L34.0373 48.3034L34.0384 48.4544C33.9575 48.9845 33.999 50.7193 34.066 51.2547C34.2729 50.4686 34.2224 49.799 34.2158 48.9893L34.2159 48.3346C34.2336 48.0608 34.2168 47.7754 34.2068 47.5003L34.2098 47.3752L34.2094 47.1259C34.2108 45.8373 34.2757 44.3743 34.228 43.1094C34.234 42.9315 34.2559 42.7999 34.1584 42.6494C33.9566 42.7807 34.0112 43.1509 34.0241 43.3698ZM49.5765 26.9675C49.588 26.6913 49.634 26.6899 49.5105 26.4982L49.3119 26.4369C49.341 26.7018 49.2956 26.8578 49.5765 26.9675Z" fill="white"/>
<path d="M35.5723 43.5205C35.8938 43.7766 35.7158 46.3818 35.6963 46.8666C35.6515 46.8467 35.5651 46.8169 35.5571 46.7651C35.467 46.1827 35.4012 43.9597 35.5723 43.5205Z" fill="white"/>
<path d="M54.596 21.6069C54.6823 22.1317 54.6591 22.5768 54.7218 22.9886C54.784 27.0145 54.784 31.0412 54.7215 35.0672C54.7031 35.2839 54.7095 35.7884 54.6079 35.9214C54.5256 35.8948 54.551 35.9147 54.495 35.856C54.5006 31.4067 54.4512 27.0267 54.4976 22.5676C54.5297 22.2505 54.5589 21.9225 54.596 21.6069Z" fill="white"/>
<path d="M35.896 51.3571L41.1166 51.3552C41.6054 51.3549 43.225 51.3286 43.633 51.3929C43.9123 51.4478 44.1927 51.4975 44.4738 51.5421L44.4697 51.5424L44.455 51.7319C44.2674 51.8223 44.1913 51.8474 43.9609 51.7981L43.9356 51.7224C43.6871 51.5316 42.7011 51.5974 42.3596 51.6203L37.3282 51.6185C36.9344 51.5891 36.2556 51.5668 35.8805 51.6598L35.819 51.7378L35.9072 51.8085C35.6687 51.839 35.3405 51.8608 35.1875 51.6399L35.2271 51.5266C35.3955 51.3857 35.6697 51.3828 35.896 51.3571Z" fill="white"/>
<path d="M50.5028 27.797C50.4859 27.5659 50.4325 27.3885 50.4312 27.135C50.4295 26.8031 50.5423 26.4035 50.477 26.0975L50.4151 26.3425L50.3699 26.3098L50.3342 25.9984L50.291 26.0198L50.2573 26.2119L50.1809 26.1437L50.2288 25.9049C50.1632 25.7044 50.1135 25.7332 49.8782 25.5923C49.6351 25.2704 49.6556 24.0077 49.7124 23.5897L49.7079 23.8464C49.7842 23.4845 49.7162 22.8659 49.9072 22.6479C49.9067 23.0096 49.8791 23.7414 49.9689 24.0582C50.0771 24.1538 50.1247 24.1952 50.2135 24.3083L50.2021 24.3537C50.1083 24.7377 50.6053 25.8879 50.7531 26.3926L50.7852 26.4141C50.8891 26.4847 50.9126 26.4926 50.9822 26.5922C50.9798 26.8683 50.9914 26.8597 50.7345 26.9968C50.5718 27.3033 50.6206 27.4985 50.5028 27.797Z" fill="white"/>
<path d="M46.8535 32.3426C46.9525 32.1503 47.0902 31.975 47.3105 31.9119C47.8334 31.7621 49.3752 31.7776 49.6515 32.3066L49.6207 32.4793C49.7216 32.538 49.9017 32.5943 49.9044 32.6873C49.9169 33.1287 49.9474 34.5211 49.8664 34.8844C49.8134 34.9477 49.7724 35.0041 49.7097 35.0573C49.7748 33.9783 49.8704 33.6314 49.4314 32.6281C48.3199 32.2991 48.1431 32.0705 46.8535 32.3426Z" fill="white"/>
<path d="M35.1603 51.0174C34.9077 49.6991 35.2944 46.92 35.1458 45.4465C35.0691 44.6857 35.1607 43.4314 35.2139 42.6467C35.2254 42.4773 36.1933 41.3804 36.6021 41.3711C35.1325 43.1979 35.4086 42.8084 35.2509 45.1148C35.148 46.6207 35.4146 49.6613 35.1603 51.0174Z" fill="white"/>
<path d="M43.924 40.2787C45.1053 39.8282 45.8678 38.751 46.8392 37.9747C47.119 37.7512 47.3217 37.4309 47.6263 37.209C47.1435 38.0224 44.9862 39.8858 44.1488 40.4072C44.042 40.7589 43.6797 41.7731 44.2161 41.9049C44.8414 42.0587 45.3809 41.3394 45.7476 41.0783C45.477 41.4832 44.5221 42.3417 44.0568 42.3298L43.9752 42.2441C43.9914 42.0105 44.0294 42.0355 43.9152 41.8987C43.736 41.5734 43.7776 41.1697 43.8574 40.8223C43.9214 40.6634 43.9155 40.4555 43.924 40.2787Z" fill="white"/>
<path d="M37.3279 51.6187L42.3593 51.6205C42.5526 51.645 43.4763 51.6825 43.5457 51.7158L43.2615 51.7956C41.1876 51.8407 38.9047 51.8236 36.8306 51.798L36.5473 51.7391L36.6086 51.7653L36.4912 51.6829C36.8232 51.6755 36.9969 51.6627 37.3279 51.6187Z" fill="white"/>
<path d="M51.1519 33.5437C51.047 33.4024 50.8573 33.0463 50.7767 33.0164L50.7282 33.178L50.6716 33.1513C50.4387 32.802 50.2009 31.6503 49.9827 31.5369C49.3017 31.1831 49.3938 30.9785 49.7563 30.333C49.7508 30.4272 49.7318 30.7507 49.778 30.8139C50.4653 31.7539 51.0477 32.2984 51.1519 33.5437Z" fill="white"/>
<path d="M34.0244 43.3698L34.2283 43.1094C34.276 44.3743 34.2111 45.8373 34.2097 47.1259L34.1477 47.2268L34.2101 47.3752L34.2071 47.5003C34.1432 47.6728 34.1408 47.9516 34.1297 48.1434C34.0983 47.4519 34.2012 45.0355 34.0405 44.558C34.0029 44.3631 34.0224 43.6118 34.0244 43.3698Z" fill="white"/>
<path d="M34.0387 48.4541C34.0485 48.7169 34.0081 48.7711 34.1288 48.9639L34.2161 48.9891C34.2226 49.7987 34.2732 50.4683 34.0663 51.2545C33.9993 50.719 33.9578 48.9843 34.0387 48.4541Z" fill="white"/>
<path d="M54.4951 35.8557C54.5512 35.9145 54.5257 35.8945 54.608 35.9211C54.7097 35.7881 54.7032 35.2836 54.7216 35.0669C54.7511 35.5627 54.7305 37.3572 54.5875 37.7821C54.4461 37.326 54.535 36.3503 54.4951 35.8557Z" fill="white"/>
<path d="M48.4007 55.4648C48.4384 55.5429 48.4986 56.0498 48.514 56.1585C48.5357 56.1111 48.5233 56.0813 48.5192 56.0183C48.5345 56.6094 48.5648 57.1967 48.5841 57.788C48.6051 58.0028 48.5685 58.0819 48.4588 58.2337C48.3487 58.0661 48.3988 55.8417 48.4007 55.4648Z" fill="white"/>
<path d="M34.04 44.5581C34.2008 45.0356 34.0978 47.452 34.1292 48.1435C34.1403 47.9517 34.1427 47.6729 34.2067 47.5004C34.2166 47.7755 34.2334 48.0609 34.2158 48.3348L34.153 48.3596L34.0371 48.3035L34.04 44.5581Z" fill="white"/>
<path d="M43.3095 41.166L43.3309 41.1024C43.6449 41.1016 43.6687 41.0274 43.8574 40.8223C43.7776 41.1697 43.736 41.5733 43.9152 41.8986C43.5334 41.6217 43.5837 41.838 43.2119 41.6825C43.3975 41.6651 43.3355 41.6943 43.464 41.5886C43.5247 41.3514 43.5263 41.4509 43.4517 41.2116L43.3095 41.166Z" fill="white"/>
<path d="M54.4974 22.5677C54.4682 22.0888 54.4681 21.8144 54.568 21.3291C54.752 21.5338 54.7513 22.4812 54.735 22.7792C54.7311 22.849 54.7266 22.9189 54.7215 22.9887C54.6589 22.5769 54.6821 22.1318 54.5958 21.607C54.5587 21.9226 54.5295 22.2505 54.4974 22.5677Z" fill="white"/>
<path d="M35.9076 51.8083L35.8193 51.7376L35.8809 51.6597C36.256 51.5666 36.9347 51.5889 37.3286 51.6183C36.9976 51.6624 36.8239 51.6752 36.4919 51.6826L36.6094 51.765L36.5481 51.7388L36.8314 51.7977C36.547 51.8107 36.197 51.8056 35.9076 51.8083Z" fill="white"/>
<path d="M42.3594 51.6205C42.7009 51.5976 43.6869 51.5318 43.9354 51.7226L43.9607 51.7983C43.7391 51.816 43.4864 51.8022 43.2617 51.7957L43.5458 51.7159C43.4764 51.6825 42.5527 51.645 42.3594 51.6205Z" fill="white"/>
<path d="M34.0242 43.3699C34.0113 43.151 33.9568 42.7807 34.1586 42.6494C34.256 42.8 34.2342 42.9316 34.2281 43.1094L34.0242 43.3699Z" fill="white"/>
<path d="M49.3125 26.437L49.5111 26.4983C49.6346 26.6901 49.5887 26.6914 49.5771 26.9676C49.2962 26.8579 49.3416 26.702 49.3125 26.437Z" fill="white"/>
<path d="M34.0371 48.3032L34.153 48.3594L34.2158 48.3345L34.2156 48.9892L34.1284 48.964C34.0076 48.7712 34.0481 48.717 34.0382 48.4542L34.0371 48.3032Z" fill="white"/>
<path d="M43.3095 41.166L43.4517 41.2116C43.5263 41.4509 43.5247 41.3514 43.464 41.5887C43.3355 41.6944 43.3975 41.6652 43.2119 41.6825L43.3095 41.166Z" fill="white"/>
<path d="M34.2099 47.3753L34.1475 47.2269L34.2095 47.126L34.2099 47.3753Z" fill="white"/>
<path d="M5.84804 16.8968C6.30389 16.8209 6.60951 16.8426 7.06262 16.8705C7.68898 17.9048 7.79685 17.3089 8.46224 17.9503C8.73037 18.2088 8.40535 18.2208 9.12769 18.4333C9.40543 18.5151 9.11521 19.0427 9.75734 19.1775C9.92808 19.3048 9.98498 19.7984 10.0838 19.8902C10.3803 20.1655 10.7402 20.1379 10.8682 20.5843C10.9012 20.6994 11.0068 21.0052 11.1193 21.076C11.1976 20.8325 11.008 20.7608 11.1198 20.6756C11.2482 21.0271 11.2484 21.2118 11.5745 21.4077C11.8336 22.0104 11.7655 23.6537 11.6281 24.3116C11.4265 25.2778 10.929 26.0406 11.0272 27.09C10.9933 27.2781 10.854 27.8516 10.9092 27.9731C11.1752 28.5579 11.7603 30.1797 12.0117 30.6455C12.1672 30.7751 13.7147 30.8703 14.0347 30.9096C14.0434 31.0945 14.0121 31.099 14.1146 31.2214L14.2043 31.186L14.1979 31.0178C14.3438 31.1459 14.3144 31.2 14.2556 31.3789C14.5273 31.7807 14.8345 31.3925 14.7819 31.9727C14.686 31.9219 14.6431 31.8076 14.5778 31.6998L14.5149 31.72C14.5163 32.2978 16.7786 34.0074 17.2799 34.4873C17.5746 34.7694 17.5554 34.6947 17.7219 35.1134C18.0499 35.1761 19.3362 35.3177 19.4707 35.49C19.3616 35.5014 19.2755 35.5069 19.1694 35.5344C19.404 35.698 19.4184 35.5414 19.6641 35.6198L19.6534 35.776C19.8622 36.0096 19.9819 35.9185 20.2238 36.0683C20.361 36.1533 20.382 36.4974 20.6026 36.6028C20.9572 36.7724 20.9986 36.8866 21.189 37.2142L21.2093 37.2497C21.6832 37.512 21.5187 37.6005 21.8248 37.8734C22.943 38.8702 23.8873 40.0441 24.8879 41.1569C25.0719 41.3616 25.4062 41.7213 25.5036 41.979C25.7037 42.8201 25.9405 44.1048 25.9741 44.9304L26.0086 44.9134C26.0194 44.5763 26.0263 43.4217 26.1528 43.1931C26.2574 43.2975 26.2551 43.4079 26.2969 43.5718C26.353 46.1365 26.3317 48.745 26.4134 51.2991C26.3637 51.4668 26.3389 51.5218 26.3618 51.7011C26.8367 52.1602 28.7347 51.3065 28.7205 52.9C28.7192 53.0015 28.716 53.1028 28.7108 53.2042L28.7257 53.735C28.709 55.2561 28.708 56.7774 28.7227 58.2986C28.6783 58.5699 28.6176 59.0457 28.4374 59.2238C28.3402 59.2514 28.288 59.2578 28.1977 59.2531C28.0837 59.2643 27.791 59.1084 27.7903 58.9695C27.7813 57.1679 27.8232 55.3588 27.7817 53.5562C27.7817 53.5562 27.6889 53.4283 27.6804 53.4165L27.6579 53.3628L27.6527 53.137L27.6325 52.9655C27.4983 52.8831 27.4489 52.932 27.2527 52.9685L27.1632 52.9467L25.0699 52.9609C24.5906 52.9052 24.1808 52.8501 23.6957 52.8586C22.0701 52.8363 20.4442 52.8293 18.8184 52.8375C17.9767 52.8378 16.4771 52.8014 15.695 52.9104C14.942 52.9746 14.0149 53.0594 13.2635 53.0015C13.1721 53.3722 13.0974 53.5932 13.128 53.9769C13.1277 55.1644 13.1499 56.4511 13.1221 57.6306C13.0846 57.8437 13.0729 57.9484 12.9847 58.1477C12.8548 58.2013 12.788 58.1805 12.646 58.1646C12.42 58.2897 12.1408 58.5059 11.9322 58.5015C11.7474 58.3349 11.7882 58.2776 11.7185 57.9885C11.6732 57.2513 11.5492 51.9587 11.8163 51.679C12.0404 51.4442 13.202 51.4223 13.5324 51.3944C13.7175 51.4186 13.764 51.4152 13.9439 51.4001C14.3515 51.166 14.788 50.6823 14.2122 50.249C14.0603 50.1347 13.8481 50.0593 13.6715 49.939L13.6725 49.8707L14.0691 49.8928L14.0931 49.7956C13.9207 49.5828 13.5152 49.445 13.2565 49.3377C13.141 49.1915 13.1891 49.092 13.133 48.9282C13.091 48.8054 12.9871 48.7664 12.8712 48.7179C12.4727 48.551 11.2428 46.873 10.6545 46.4226C10.5656 45.8882 10.4933 45.9853 10.1901 45.6006C9.75265 45.0457 9.32222 44.4821 8.87996 43.9306C8.74344 43.7605 8.58588 43.6535 8.44812 43.4894C8.39808 43.428 8.29437 43.1268 8.26754 43.0404L8.2557 43.0013C7.85932 42.6041 7.66883 43.0715 7.40797 42.2972C7.32892 42.2488 7.24297 42.2004 7.16873 42.1595C6.1264 41.5856 5.61202 39.6261 4.55157 39.0602C4.28715 38.9191 4.54545 36.8701 4.28694 36.5233C4.25644 32.5718 4.24989 28.6201 4.2673 24.6685C4.27713 23.4393 4.23775 20.1343 4.49002 19.1372C5.01751 18.7201 4.90197 17.9994 5.31365 17.4321C5.4678 17.2197 5.65254 17.0677 5.84804 16.8968ZM12.367 46.4962C12.3603 46.8947 13.9613 48.747 14.2887 49.0886C14.3277 49.1293 14.3674 49.1693 14.4076 49.2087C14.49 49.4874 14.4948 49.5912 14.5145 49.8843L14.8516 50.0571L14.9362 49.9468C15.0561 50.0768 15.0508 50.1045 15.0881 50.2755L15.1187 50.4136C15.2847 50.5751 15.3797 50.578 15.6075 50.6322C15.6048 50.8406 15.593 51.1084 15.6181 51.3089C16.0629 51.3459 16.5086 51.3712 16.9546 51.3847C16.5445 51.5018 16.0921 51.3712 15.7507 51.5028L15.7414 51.5746C16.0933 51.8718 16.602 51.8432 17.0516 51.8114L17.2685 51.8155C18.457 51.8998 20.0635 51.8279 21.275 51.8503C22.0024 51.8637 24.1017 51.8952 24.7436 51.752C24.7815 51.7292 24.7658 51.7344 24.7878 51.6742L24.726 51.7228L24.8135 51.6528L24.7855 51.5452C24.7865 51.5457 24.1112 51.4127 24.0044 51.3848C24.2578 51.3944 24.518 51.4353 24.7191 51.2872C24.8495 51.1095 24.8428 50.8364 24.8598 50.6089C24.8966 50.5651 24.9705 43.0697 24.8668 42.6003C24.8175 42.6583 24.7863 42.7048 24.744 42.7668C24.7357 42.4941 24.678 42.1513 24.5396 41.9142C24.0824 41.7785 24.1261 41.5838 23.8319 41.2837C22.8953 40.3285 22.1925 39.1906 21.3012 38.1904C21.0414 37.899 20.6706 37.6694 20.4651 37.3776L20.4636 37.4035L20.4267 37.2638L20.5221 37.1158C20.4038 37.0366 20.3305 37.0502 20.2022 36.9626C20.1256 36.9212 19.7628 36.4378 19.763 36.4379C18.8513 36.2774 18.4248 36.3332 17.5542 35.9462L17.5527 35.8816L17.8088 35.7679C17.7307 35.6896 17.2433 35.7348 17.0831 35.519C16.8352 35.1852 16.4461 34.983 16.1376 34.6619C16.0117 34.1079 15.3998 33.6285 15.04 33.2101C15.0232 33.1906 14.8159 32.678 14.7821 32.6569C14.3386 32.3801 14.4976 32.6338 14.2585 32.1607L14.1938 32.171L14.1716 32.368L14.1072 32.4119C13.8758 32.3333 13.6964 32.2253 13.617 31.9891L13.6681 31.9622L14.0368 32.178L14.0969 32.1501L14.0367 31.9755C13.568 31.4874 11.624 31.8981 11.1213 32.2763C10.7213 32.5775 10.6435 32.5776 10.6333 33.0449C10.4503 33.424 10.3474 33.6736 10.2792 34.1019C10.1959 34.338 10.1955 34.667 10.1325 34.9359L10.1322 34.7932C10.1066 35.0867 10.0518 35.4655 10.2407 35.7059C10.4592 35.8362 10.6528 35.9107 10.8917 36.0026C10.9883 36.0398 11.0966 36.5218 11.258 36.5377C12.0239 36.6132 12.1082 37.3523 12.6338 37.5347C12.7114 37.6629 12.7068 37.7236 12.7235 37.8733C12.8956 38.0423 13.3619 38.53 13.5438 38.6101L13.765 38.5879C13.7484 38.6791 13.7251 38.7633 13.7382 38.8541C13.8079 38.8804 14.0437 38.9581 14.0775 39.0045C14.3698 39.4048 16.2294 40.8014 15.7803 41.3295C15.7968 41.4715 15.8203 41.4851 15.9118 41.6032C15.7766 41.7027 15.4128 41.6635 15.2641 41.5707L15.206 41.4529C15.2514 41.3946 15.2773 41.3564 15.3312 41.3047C15.1108 41.2239 14.8348 41.1691 14.719 41.0066L14.7503 40.997C14.8486 40.9664 14.8445 40.9814 14.9091 40.9139C14.6583 40.751 14.217 40.6008 14.0774 40.4505C14.0695 40.1961 14.1092 40.1495 13.993 39.9632C13.7629 39.8707 13.5034 39.794 13.3423 39.6048C12.91 39.0971 12.3645 38.6917 11.8945 38.2276C11.148 37.4907 10.4049 36.7611 9.61719 36.0671C9.60131 36.0531 9.46713 35.4317 9.41697 35.337L9.31871 35.157C9.38691 34.6683 9.31004 34.1046 9.37402 33.5631L9.37279 33.3555L9.41111 32.9157C9.50398 32.7603 9.38949 32.3794 9.54594 32.2191C11.023 30.7056 11.1847 30.4477 10.1122 28.5177C9.88109 28.1019 9.77674 27.3094 9.42969 26.8735C9.36658 26.7218 9.47439 25.8674 9.47791 25.6072C9.6551 24.7995 9.88959 25.032 10.0187 24.3835C10.1932 23.5076 10.1364 21.913 9.71844 21.1042C9.47258 20.7112 9.08281 20.3581 8.81615 19.9956C8.34711 19.3579 7.85498 18.6333 7.02424 18.4517C6.01203 18.2304 5.94869 19.9934 5.88957 20.6264C5.74754 22.1464 5.7633 23.7042 5.75266 25.2321C5.73959 27.6261 5.74269 30.0202 5.76194 32.4141C5.76875 33.8476 5.79383 35.2809 5.83718 36.7138C5.8549 37.3945 5.85183 38.0103 5.92502 38.6916C5.99498 39.3427 6.75664 39.8326 6.88221 40.1974C6.88285 40.2648 6.88912 40.5632 6.91068 40.5964C7.23887 41.1017 7.79375 41.536 8.16687 42.0137C8.20584 42.0636 8.09551 42.2155 8.25078 42.4178L8.34822 42.2397L8.40383 42.2576C8.75908 43.281 8.50625 42.797 9.15969 43.3431C9.35146 43.5034 10.0407 44.4254 10.2467 44.678C10.3154 44.6898 10.4034 44.7049 10.5107 44.7233C10.9414 45.0955 11.6666 46.3801 12.2483 46.408L12.367 46.4962ZM5.28023 26.1125C5.26443 27.1538 5.26424 28.1952 5.27965 29.2366C5.22284 29.837 5.26693 34.9928 5.33977 35.13L5.4107 35.1133C5.52261 34.8431 5.54249 29.7242 5.50973 29.1634L5.50876 27.1666C5.59549 26.5628 5.49619 22.5851 5.38543 21.9534L5.33007 21.9491C5.25019 22.173 5.24247 25.7291 5.28023 26.1125Z" fill="white"/>
<path d="M10.6328 33.0445C10.643 32.5771 10.7208 32.577 11.1208 32.2759C11.6235 31.8976 13.5675 31.4869 14.0362 31.975L14.0963 32.1496L14.0363 32.1775L13.6676 31.9618L13.6165 31.9887C13.6959 32.2249 13.8753 32.3328 14.1067 32.4115L14.1711 32.3675L14.1933 32.1705L14.258 32.1603C14.4971 32.6333 14.338 32.3797 14.7816 32.6565C14.8154 32.6776 15.0227 33.1901 15.0395 33.2097C15.3993 33.628 16.0112 34.1074 16.1371 34.6614C16.4455 34.9826 16.8347 35.1847 17.0826 35.5186C17.2428 35.7344 17.7302 35.6892 17.8083 35.7674L17.5521 35.8811L17.5537 35.9457C18.4243 36.3327 18.8508 36.277 19.7625 36.4375C19.7622 36.4374 20.1251 36.9207 20.2017 36.9622C20.33 37.0498 20.4033 37.0361 20.5216 37.1154L20.4262 37.2634L20.4631 37.4031L20.4646 37.3771C20.6701 37.669 21.0409 37.8985 21.3007 38.19C22.192 39.1902 22.8948 40.3281 23.8313 41.2832C24.1256 41.5833 24.0819 41.778 24.5391 41.9137C24.6775 42.1509 24.7352 42.4936 24.7435 42.7663C24.7858 42.7043 24.817 42.6578 24.8663 42.5998C24.97 43.0693 24.8961 50.5647 24.8593 50.6085C24.8224 50.2779 24.8536 49.6281 24.8369 49.2561C24.7417 47.1234 24.9645 44.9289 24.6007 42.8203C24.5256 42.3851 23.6332 41.5697 23.3079 41.202L20.6079 38.1732C20.3787 37.9161 19.7229 37.0684 19.4972 36.9329C18.7032 36.4559 17.2678 36.2342 16.5875 35.6007C15.6293 34.7084 14.8587 33.2818 13.7662 32.513C13.2317 32.1368 12.2734 32.1442 11.6496 32.3012C11.0931 32.4413 10.9192 32.5673 10.6328 33.0445Z" fill="white"/>
<path d="M9.41694 35.3367C9.4671 35.4314 9.60128 36.0527 9.61716 36.0667C10.4048 36.7608 11.148 37.4903 11.8945 38.2273C12.3645 38.6914 12.9099 39.0967 13.3423 39.6045C13.5033 39.7937 13.7628 39.8703 13.9929 39.9629C14.1092 40.1492 14.0695 40.1958 14.0774 40.4502C14.217 40.6004 14.6583 40.7507 14.9091 40.9136C14.8445 40.9811 14.8486 40.9661 14.7503 40.9967L14.719 41.0062C14.8348 41.1687 15.1108 41.2236 15.3312 41.3044C15.2773 41.3561 15.2514 41.3943 15.206 41.4526L15.2641 41.5704C15.4128 41.6631 15.7765 41.7023 15.9118 41.6028C15.8202 41.4848 15.7967 41.4712 15.7802 41.3292C16.2293 40.8011 14.3698 39.4045 14.0774 39.0042C14.0436 38.9578 13.8078 38.8801 13.7382 38.8538C13.725 38.763 13.7484 38.6788 13.765 38.5876L13.5438 38.6098C13.3618 38.5297 12.8956 38.042 12.7235 37.873C12.7067 37.7232 12.7114 37.6625 12.6338 37.5344C12.1082 37.3519 12.0239 36.6129 11.258 36.5374C11.0965 36.5215 10.9883 36.0394 10.8916 36.0022C10.6528 35.9104 10.4592 35.8359 10.2407 35.7056C10.0517 35.4652 10.1066 35.0863 10.1321 34.7929L10.1324 34.9356C10.1955 34.6667 10.1959 34.3377 10.2791 34.1016C10.2861 34.155 10.3127 34.335 10.3118 34.378C10.308 35.0011 10.4993 35.3703 10.9979 35.7357C11.6269 36.5296 17.3419 40.9447 16.3611 41.7386C16.0708 41.8144 15.7766 41.9092 15.4783 41.9013C14.904 41.7555 14.2544 40.9438 13.8093 40.5174L10.6458 37.4475C10.2323 37.0407 9.43358 36.5301 9.18778 36.0507L9.18696 35.9878C9.18573 35.7153 9.13306 35.6653 9.29366 35.4388L9.41694 35.3367Z" fill="white"/>
<path d="M6.88184 40.1973C7.23199 40.7129 7.86861 41.1071 8.27443 41.5755C8.95529 42.3615 9.58061 43.2039 10.2566 43.9952C10.6997 44.5522 12.0097 45.9283 12.248 46.4079C11.6662 46.38 10.941 45.0954 10.5103 44.7232C10.403 44.7048 10.315 44.6896 10.2463 44.6779C10.0403 44.4253 9.35109 43.5033 9.15932 43.343C8.50588 42.7968 8.75871 43.2809 8.40346 42.2574L8.34785 42.2396L8.25041 42.4177C8.09514 42.2154 8.20547 42.0635 8.1665 42.0136C7.79338 41.5358 7.2385 41.1016 6.91031 40.5963C6.88875 40.5631 6.88248 40.2647 6.88184 40.1973Z" fill="white"/>
<path d="M16.9545 51.3847C18.0727 51.2781 19.8935 51.401 21.0843 51.3553C21.518 51.3387 23.7228 51.3422 24.0042 51.3848C24.111 51.4127 24.7863 51.5457 24.7853 51.5452L24.8133 51.6528L24.7258 51.7228L24.7876 51.6742C24.7656 51.7345 24.7813 51.7292 24.7434 51.752C24.536 51.6285 24.5012 51.6432 24.2708 51.6862L24.1884 51.6776C23.7928 51.5392 16.9945 51.5641 16.7057 51.6992C16.8429 51.7901 16.8865 51.7887 17.0514 51.8115C16.6018 51.8432 16.0931 51.8718 15.7412 51.5746L15.7505 51.5028C16.092 51.3712 16.5443 51.5018 16.9545 51.3847Z" fill="white"/>
<path d="M9.42919 26.8735C9.77624 27.3094 9.88059 28.1019 10.1117 28.5177C11.1842 30.4478 11.0225 30.7056 9.54544 32.2191C9.38899 32.3794 9.50348 32.7603 9.41061 32.9157C9.41741 32.826 9.38835 32.7913 9.34622 32.7117C9.30626 32.2746 9.40329 32.0925 9.48005 31.6704C9.86671 31.179 10.543 31.187 10.2807 30.1995C10.0369 29.2817 9.78942 28.3755 9.46171 27.4814C9.48626 27.3472 9.44384 27.0259 9.42919 26.8735Z" fill="white"/>
<path d="M12.3672 46.4961C12.7076 46.7467 12.9176 47.2378 13.1945 47.5121C14.2426 48.5504 15.0476 49.2009 15.6077 50.6321C15.3799 50.578 15.2849 50.575 15.1188 50.4135L15.0883 50.2754C15.051 50.1045 15.0563 50.0767 14.9363 49.9467L14.8518 50.057L14.5147 49.8842C14.495 49.5911 14.4902 49.4873 14.4078 49.2086C14.3675 49.1693 14.3279 49.1292 14.2888 49.0885C13.9615 48.7469 12.3605 46.8946 12.3672 46.4961Z" fill="white"/>
<path d="M5.34821 24.0429L5.39668 24.0308C5.50369 24.5598 5.39484 26.9681 5.5081 27.1665L5.50907 29.1633C5.31333 30.2999 5.58524 32.3027 5.35716 33.2546C5.3148 32.4673 5.36876 29.7264 5.27899 29.2365C5.26358 28.1951 5.26378 27.1537 5.27957 26.1124C5.33986 25.938 5.31827 24.4043 5.34821 24.0429Z" fill="white"/>
<path d="M5.50989 29.1631C5.54265 29.7239 5.52277 34.8428 5.41086 35.113L5.33993 35.1297C5.26709 34.9925 5.223 29.8367 5.27981 29.2363C5.36958 29.7262 5.31562 32.4671 5.35798 33.2544C5.58606 32.3025 5.31415 30.2997 5.50989 29.1631Z" fill="white"/>
<path d="M17.3947 51.761C17.2988 51.7432 17.263 51.7381 17.1689 51.7017C17.8612 51.632 18.8608 51.6573 19.5808 51.6573L24.1886 51.6775L24.271 51.6862C24.0384 51.8699 18.0457 51.8008 17.3947 51.761Z" fill="white"/>
<path d="M5.2797 26.1121C5.24194 25.7287 5.24966 22.1726 5.32954 21.9487L5.3849 21.953C5.49566 22.5846 5.59495 26.5624 5.50822 27.1662C5.39496 26.9678 5.50382 24.5595 5.3968 24.0304C5.41423 23.8462 5.44599 23.692 5.37601 23.5216C5.29606 23.6761 5.33459 23.8594 5.34834 24.0426C5.31839 24.404 5.33998 25.9377 5.2797 26.1121Z" fill="white"/>
<path d="M8.91285 35.2796C8.88695 34.7744 8.78424 33.2328 9.01891 32.8677L9.13744 32.8794C9.14998 33.3027 9.22938 34.9259 9.13164 35.2639C9.01498 35.3174 9.05828 35.3035 8.91285 35.2796Z" fill="white"/>
<path d="M9.18755 36.0506C9.15843 36.0293 9.09175 35.9694 9.07364 35.9593C8.86593 35.8438 8.78659 35.0743 8.78038 34.8275C8.75858 33.9587 8.72624 32.8402 9.25165 32.0974C9.33415 31.9808 9.28833 31.8843 9.48028 31.6699C9.40353 32.0921 9.30649 32.2741 9.34646 32.7112L9.31985 32.9013C9.19405 32.9259 9.25306 32.9331 9.13704 32.8792L9.01851 32.8675C8.78384 33.2326 8.88655 34.7742 8.91245 35.2794C8.98382 35.538 9.04546 35.8266 9.18755 36.0506Z" fill="white"/>
<path d="M17.0518 51.8113C16.8869 51.7886 16.8433 51.7899 16.7061 51.699C16.9949 51.564 23.7932 51.5391 24.1888 51.6774L19.581 51.6572C18.861 51.6572 17.8614 51.6318 17.1691 51.7016C17.2632 51.738 17.299 51.7431 17.3949 51.7608L17.2687 51.8153L17.0518 51.8113Z" fill="white"/>
<path d="M10.3116 34.378L10.4914 34.719L10.5554 34.7112C10.5937 34.6108 10.6711 34.3663 10.7404 34.3057C10.8205 34.3884 10.999 35.571 10.9977 35.7358C10.4991 35.3703 10.3078 35.0011 10.3116 34.378Z" fill="white"/>
<path d="M9.34607 32.7114C9.3882 32.791 9.41727 32.8257 9.41047 32.9154L9.37215 33.3552L9.26768 33.3014C9.16373 33.4216 9.18723 33.362 9.18441 33.5278L9.27148 33.5974L9.37338 33.5629C9.30939 34.1044 9.38627 34.668 9.31807 35.1567L9.41633 35.3367L9.29305 35.4389C9.32434 35.3268 9.321 35.3838 9.29082 35.262L9.13086 35.2638C9.22859 34.9259 9.1492 33.3027 9.13666 32.8794C9.25268 32.9333 9.19367 32.9261 9.31947 32.9015L9.34607 32.7114Z" fill="white"/>
<path d="M24.2711 51.6859C24.5014 51.6428 24.5362 51.6281 24.7437 51.7517C24.1018 51.8949 22.0025 51.8634 21.2751 51.85C20.0636 51.8276 18.4571 51.8995 17.2686 51.8152L17.3948 51.7607C18.0457 51.8005 24.0384 51.8696 24.2711 51.6859Z" fill="white"/>
<path d="M9.46206 27.4812C9.36755 27.3661 9.4057 27.229 9.33814 27.0734C9.23619 26.8387 9.22687 27.0994 8.88199 26.9821C8.80529 26.7637 8.85099 26.4948 9.08132 26.4042L9.28007 26.5252C9.40915 26.3123 9.25335 25.9036 9.47777 25.6069C9.47425 25.8671 9.36644 26.7216 9.42954 26.8733C9.44419 27.0256 9.48661 27.3469 9.46206 27.4812ZM9.11648 26.9977C9.16611 26.7384 9.19839 26.7815 9.11079 26.5731L9.00222 26.4962C8.96437 26.7317 8.92142 26.7444 9.00632 26.9222L9.11648 26.9977Z" fill="white"/>
<path d="M9.00211 26.4961L9.11068 26.573C9.19828 26.7814 9.16599 26.7383 9.11637 26.9976L9.00621 26.9221C8.92131 26.7443 8.96426 26.7316 9.00211 26.4961Z" fill="white"/>
<path d="M15.478 41.9015C15.7763 41.9094 16.0705 41.8145 16.3608 41.7388C15.6822 42.1432 16.1676 42.3718 15.323 42.3294L15.2737 42.2382L15.207 42.3006L15.2957 42.3261L15.2197 42.2665C15.3818 42.1941 15.5093 42.1402 15.6765 42.0802C15.6079 41.9924 15.5945 41.9954 15.4954 41.9497L15.478 41.9015Z" fill="white"/>
<path d="M8.91211 35.2798C9.05754 35.3036 9.01424 35.3176 9.1309 35.264L9.29086 35.2622C9.32104 35.384 9.32437 35.327 9.29309 35.4391C9.13248 35.6655 9.18516 35.7155 9.18639 35.988L9.18721 36.0509C9.04512 35.8269 8.98348 35.5384 8.91211 35.2798Z" fill="white"/>
<path d="M5.34857 24.0429C5.33481 23.8597 5.29628 23.6765 5.37624 23.522C5.44621 23.6923 5.41446 23.8466 5.39703 24.0308L5.34857 24.0429Z" fill="white"/>
<path d="M9.37399 33.5627L9.27209 33.5972L9.18502 33.5277C9.18783 33.3619 9.16434 33.4215 9.26828 33.3013L9.37276 33.3551L9.37399 33.5627Z" fill="white"/>
<path d="M33.952 6.10995C34.3904 5.82997 34.0757 5.03285 35.2841 5.20204C35.9208 5.29119 36.1638 6.17962 36.5567 6.61227C36.7487 6.82022 37.1317 6.90102 37.2523 7.17261C37.6648 7.94903 38.0709 8.43149 38.4197 9.26177C38.653 9.817 38.6035 10.271 38.9312 10.6019L38.9531 10.7877L39.0022 10.813C39.0308 10.6554 38.9973 10.4935 39.0778 10.3994C39.1898 10.7042 39.2436 10.7987 39.1698 11.1076C39.4624 11.5085 39.3478 11.7576 39.4126 12.1967C39.4433 12.4047 39.8317 12.3862 39.9333 12.6906C39.7301 13.5001 40.372 13.7001 40.5973 14.3831L40.5585 14.454L40.3071 14.4011C40.311 14.6384 40.4833 14.5969 40.6863 14.6547C40.8271 14.6949 40.8936 14.8353 40.9822 14.9551C41.0974 16.0094 41.0947 16.8623 41.1329 17.8823C41.2192 20.186 40.757 21.6458 39.6632 23.6761C38.8423 25.1997 38.325 25.8856 37.0172 27.0314C36.1049 27.8308 35.375 28.921 34.1994 29.4906C34.0227 29.5883 33.7041 29.8376 33.53 29.9113C33.1614 29.8778 32.6481 30.1475 32.4097 30.0635C32.262 30.0115 32.3202 29.6539 32.032 29.5084C33.2764 28.8049 34.87 27.0543 36.1665 26.2209C36.3732 26.0881 36.4663 25.8593 36.484 25.6159C37.0113 24.6821 37.1384 24.6621 37.8691 23.8796C38.2658 23.4548 38.614 22.631 38.8059 22.0844C38.9226 21.7522 39.2937 21.0985 39.3516 20.8043C39.714 18.9627 39.5837 17.0687 39.4335 15.2464C39.4966 14.8782 39.5143 14.7838 39.4448 14.4024L39.4309 14.444C39.3534 13.8539 39.3133 12.9126 38.887 12.5192C38.7788 12.4195 39.0411 12.1615 38.8814 11.8097C38.7973 11.9214 38.8305 11.913 38.7207 11.9471L38.6057 11.7823C38.7523 11.0987 37.807 9.71733 37.2411 9.30138L37.1934 9.26692L37.1757 9.217C37.139 9.11604 37.0915 8.83233 37.0427 8.76987C36.7272 8.36645 35.963 6.93788 35.3182 7.27134L35.2846 7.37804C34.4975 8.75294 32.708 10.6663 31.3178 11.4381C30.3199 11.9922 29.5614 12.3006 28.6398 13.0795C27.8431 13.1964 27.686 13.4268 27.1421 14.0304C27.0762 14.1036 27.0802 14.2518 27.0826 14.3496C25.8843 15.8158 24.3128 17.3799 23.6196 19.1353C23.4427 19.5834 23.4679 19.9056 23.3814 20.3187C23.0196 20.7962 23.3757 23.2511 23.1839 23.4247C23.1721 22.9163 23.2657 20.7692 23.0315 20.5261L22.9214 20.55C22.8081 20.7588 22.8303 20.8574 22.8536 21.1129L22.8487 21.2778C22.8485 21.6573 22.8776 22.987 22.8425 23.2594C22.8474 23.4175 22.8897 24.0146 23.0637 24.0814C23.6234 24.2961 23.2224 25.1085 23.3812 25.3237C23.6715 25.717 24.0263 26.6672 24.2795 27.0792C24.3955 27.2678 24.862 27.378 24.9262 27.8318C24.9776 27.9859 25.539 27.9496 25.5621 28.3252C25.5655 28.3888 25.5677 28.4523 25.5686 28.516C25.9754 28.8076 26.096 28.5527 26.1868 28.984C26.5657 29.2866 27.204 29.3903 27.6699 29.3072C27.6745 28.1292 27.8396 26.8769 27.883 25.6964C27.9325 25.5161 28.0171 25.1145 28.0876 24.9754C28.207 25.1948 28.0699 25.2051 28.2156 25.5299L28.2347 25.5715L28.2413 25.6157C28.2409 25.99 28.1974 26.6215 28.2905 26.9502L28.3572 26.9751C28.5009 26.7552 28.4406 24.6328 28.5597 24.2249C28.5863 24.1337 28.6044 23.7123 28.6076 23.6086C29.1347 21.6108 29.8519 19.797 30.7747 17.9498C31.3758 16.7466 31.7239 16.0143 32.6371 14.9733C33.115 14.4286 32.9865 13.5941 34.2493 13.9879C34.3549 14.0826 34.4167 14.1081 34.4138 14.2688C34.3979 15.1649 33.725 15.9013 33.2904 16.6316C32.893 17.2996 32.5342 17.9422 32.1529 18.6156C31.9488 18.9779 31.3256 19.9871 31.2236 20.3207C30.876 21.4572 30.2719 22.5969 30.0948 23.75C30.0818 23.8346 29.982 24.3599 29.9538 24.4113L29.7556 24.4678L29.7552 24.5071C29.753 24.6358 29.7592 24.6597 29.7128 24.7752L29.6491 24.7339L29.6346 24.3112L29.5829 24.3059C29.5501 24.5358 29.5631 24.627 29.5848 24.8592C29.4822 24.908 29.4022 24.9173 29.3839 25.004C29.2529 25.6233 29.2246 27.1701 29.3031 27.7838C29.3039 30.3254 29.0924 32.8902 29.6098 35.3791C29.7264 35.9399 30.0247 36.5015 29.9967 37.0753C29.9909 37.2715 30.0074 37.5244 29.9056 37.6816C29.1023 37.7921 29.3186 37.3221 28.9512 37.0651L29.0702 37.4871L29.0186 37.5575L28.9306 37.5391C28.7461 37.2432 28.4569 34.6746 28.3205 34.0254L28.2856 34.0452C28.0625 34.3419 28.0937 34.6926 28.0945 35.0554L27.9802 35.1272C27.9509 34.7795 27.8602 33.0151 27.7269 32.8326C27.6674 32.2088 27.5417 31.6057 27.424 30.9909C27.2091 30.8829 26.8223 30.7368 26.7222 30.5556C26.6906 30.4279 26.5593 30.2224 26.4573 30.1432C25.6371 29.5066 24.8521 28.9047 24.164 28.1124C24.1735 27.8469 24.0528 27.7473 23.8922 27.5541C23.1715 26.6874 22.8155 25.5419 22.2455 24.5896C22.1673 24.5356 22.1378 24.5324 22.0473 24.5243C22.0279 24.1433 21.9857 23.629 21.8464 23.2785L21.8403 22.9335C21.8266 21.8634 21.7707 20.1217 21.9502 19.073C22.0631 18.4136 23.6557 16.1918 24.0592 15.5161C24.3229 15.0744 25.3037 14.0774 25.6739 13.6221C26.6685 12.3989 28.164 11.4456 29.479 10.6081C31.376 9.39354 33.3646 8.48985 33.952 6.10995ZM40.0825 18.3372L40.0937 17.6164C40.0938 17.3796 40.0863 17.1428 40.0714 16.9064L40.1078 16.5716C40.0821 16.3964 40.086 16.3116 39.9713 16.2044C39.8652 16.362 39.8975 16.3614 39.8836 16.5764C39.897 16.671 39.9233 16.7643 39.8896 16.8494L39.8955 17.3987C39.8113 17.8772 39.9023 19.0516 39.9342 19.5727C39.9535 19.5955 39.9711 19.6129 39.9795 19.6418C40.092 19.1202 40.0928 18.8744 40.0825 18.3372Z" fill="white"/>
<path d="M39.8952 17.3984L39.915 17.5706C39.9072 17.7692 39.8751 18.0994 39.9434 18.2706C39.9757 18.2871 40.0518 18.3294 40.0821 18.3369C40.0925 18.8741 40.0916 19.1199 39.9791 19.6415C39.9708 19.6126 39.9531 19.5952 39.9339 19.5724C39.9019 19.0512 39.8109 17.8769 39.8952 17.3984Z" fill="white"/>
<path d="M39.8896 16.8491L40.0714 16.9062C40.0863 17.1426 40.0938 17.3793 40.0937 17.6162L40.0013 17.5357L39.9154 17.5707L39.8956 17.3985L39.8896 16.8491Z" fill="white"/>
<path d="M39.9157 17.5707L40.0017 17.5356L40.094 17.6162L40.0828 18.3369C40.0525 18.3295 39.9764 18.2872 39.9441 18.2706C39.8758 18.0994 39.9079 17.7693 39.9157 17.5707Z" fill="white"/>
<path d="M39.8838 16.5761C39.9688 16.5868 40.0314 16.6053 40.108 16.5713L40.0716 16.9062L39.8898 16.8491C39.9235 16.7641 39.8972 16.6707 39.8838 16.5761Z" fill="white"/>
<path d="M39.8838 16.5761C39.8977 16.3611 39.8654 16.3617 39.9715 16.2041C40.0862 16.3114 40.0822 16.3962 40.108 16.5713C40.0314 16.6054 39.9688 16.5868 39.8838 16.5761Z" fill="white"/>
<path d="M11.0273 27.0898C11.1701 27.5046 11.2605 27.8647 11.3732 28.2857C11.5443 28.9251 11.9756 29.6376 11.9893 30.2863C12.5773 30.4529 13.7589 30.5982 14.2581 30.7987C14.7286 30.9877 15.4638 32.2258 15.8372 32.5658C16.2325 33.032 17.7258 34.3288 17.9347 34.6874C19.6007 35.3256 20.2109 35.2999 21.4641 36.7847C22.9387 38.5318 24.5086 40.2205 26.0387 41.9057C26.2077 42.0925 26.2931 43.2895 26.297 43.5716C26.2552 43.4077 26.2575 43.2973 26.1529 43.1929C26.0264 43.4215 26.0195 44.5762 26.0086 44.9132L25.9742 44.9302C25.9406 44.1046 25.7038 42.8199 25.5037 41.9788C25.4063 41.7211 25.072 41.3614 24.888 41.1567C23.8874 40.0439 22.9431 38.87 21.8249 37.8732C21.5188 37.6003 21.6833 37.5119 21.2094 37.2495L21.1891 37.214C20.9987 36.8864 20.9573 36.7722 20.6027 36.6027C20.3821 36.4972 20.3611 36.1531 20.2239 36.0681C19.982 35.9183 19.8623 36.0094 19.6535 35.7758L19.6642 35.6196C19.4185 35.5412 19.4041 35.6979 19.1695 35.5343C19.2756 35.5067 19.3617 35.5012 19.4708 35.4898C19.3363 35.3175 18.05 35.1759 17.722 35.1132C17.5555 34.6945 17.5747 34.7693 17.28 34.4871C16.7787 34.0072 14.5164 32.2976 14.515 31.7198L14.5779 31.6996C14.6432 31.8074 14.686 31.9217 14.782 31.9725C14.8346 31.3923 14.5274 31.7805 14.2557 31.3787C14.3144 31.1998 14.3439 31.1457 14.198 31.0176L14.2044 31.1858L14.1147 31.2212C14.0122 31.0988 14.0435 31.0943 14.0348 30.9095C13.7148 30.8701 12.1673 30.7749 12.0118 30.6453C11.7604 30.1795 11.1753 28.5577 10.9093 27.9729C10.8541 27.8514 10.9934 27.2779 11.0273 27.0898Z" fill="white"/>
<path d="M4.28705 36.5229C4.54556 36.8697 4.28726 38.9187 4.55168 39.0598C5.61214 39.6257 6.12652 41.5852 7.16884 42.1591C7.24308 42.2 7.32904 42.2484 7.40808 42.2968C7.66894 43.0711 7.85943 42.6037 8.25582 43.001L8.26765 43.04C8.29449 43.1264 8.3982 43.4276 8.44824 43.489C8.58599 43.6531 8.74355 43.7601 8.88007 43.9303C9.32234 44.4817 9.75277 45.0453 10.1902 45.6002C10.4935 45.9849 10.5658 45.8878 10.6546 46.4222C11.2429 46.8726 12.4728 48.5507 12.8713 48.7175C12.9873 48.766 13.0911 48.805 13.1332 48.9278C13.1892 49.0917 13.1411 49.1911 13.2566 49.3373C13.5153 49.4446 13.9208 49.5824 14.0932 49.7952L14.0692 49.8925L13.6726 49.8703L13.6716 49.9386C13.8482 50.0589 14.0604 50.1343 14.2123 50.2486C14.7881 50.682 14.3516 51.1656 13.944 51.3997C13.7641 51.4148 13.7176 51.4182 13.5325 51.394C14.7225 51.1661 13.7635 50.1814 13.2238 49.9228C13.1903 49.9068 12.8779 49.5097 12.8362 49.4456C12.0711 48.2687 11.1396 47.3311 10.1533 46.3419C9.91806 46.1021 9.70789 45.5497 9.48751 45.332C8.31892 44.178 7.35857 42.8773 6.2273 41.6793C5.5458 40.9575 5.19493 40.1807 4.35487 39.5544C4.23982 38.6729 4.27968 37.4252 4.28705 36.5229Z" fill="white"/>
<path d="M34.3995 4.46436C34.7939 4.49939 35.1579 4.53719 35.4703 4.84605C38.0652 7.41164 39.6615 10.6931 40.8292 14.1097C40.9301 14.4048 40.9811 14.6477 40.9823 14.9548C40.8937 14.835 40.8272 14.6946 40.6864 14.6544C40.4834 14.5966 40.3111 14.6381 40.3072 14.4008L40.5587 14.4537L40.5974 14.3828C40.3721 13.6997 39.7303 13.4998 39.9335 12.6902C39.8319 12.3859 39.4434 12.4044 39.4127 12.1964C39.3479 11.7573 39.4625 11.5082 39.1699 11.1073C39.2437 10.7984 39.19 10.7039 39.0779 10.399C38.9974 10.4931 39.0309 10.6551 39.0023 10.8127L38.9532 10.7874L38.9313 10.6016C38.6036 10.2707 38.6531 9.81668 38.4198 9.26145C38.0711 8.43118 37.6649 7.94871 37.2524 7.17229C37.1319 6.90071 36.7488 6.81991 36.5568 6.61196C36.1639 6.1793 35.921 5.29087 35.2842 5.20172C34.0758 5.03253 34.3905 5.82965 33.9521 6.10963C34.0932 5.48349 34.1917 5.07971 34.3995 4.46436Z" fill="white"/>
<path d="M26.4128 51.2988C27.2805 51.3584 28.1979 51.3166 28.915 51.7644C29.0378 52.3891 29.2712 52.8609 29.2231 53.4981C29.108 55.0233 29.4009 57.2104 29.1262 58.6617C29.0408 58.7753 29.0239 58.7818 28.8875 58.8257C28.839 58.9505 28.8594 58.9769 28.8978 59.1134C28.7153 59.4181 28.4058 59.3103 28.0953 59.3038C27.9226 59.3003 27.7047 59.2951 27.692 59.0742C27.6596 58.5104 27.6889 57.9364 27.6988 57.3697C27.7114 56.4386 27.7157 55.5073 27.7116 54.576C27.7111 54.3625 27.7161 53.6429 27.6655 53.4747L27.6797 53.4162C27.6882 53.428 27.781 53.556 27.781 53.556C27.8225 55.3585 27.7806 57.1676 27.7896 58.9693C27.7903 59.1081 28.083 59.264 28.197 59.2529C28.2873 59.2576 28.3396 59.2511 28.4368 59.2236C28.6169 59.0455 28.6777 58.5697 28.7221 58.2983C28.8707 58.1303 28.8471 57.9316 28.8541 57.7022C28.9561 57.5174 28.9296 53.3456 28.8112 53.1427L28.7102 53.2039C28.7153 53.1026 28.7186 53.0012 28.7198 52.8998C28.7341 51.3063 26.836 52.16 26.3611 51.7008C26.3382 51.5215 26.3631 51.4665 26.4128 51.2988Z" fill="white"/>
<path d="M35.2842 7.37789L35.3178 7.2712C35.9626 6.93774 36.7268 8.36631 37.0422 8.76973C37.091 8.83219 37.1385 9.1159 37.1752 9.21686L37.193 9.26678L37.2406 9.30123C37.8065 9.71719 38.7519 11.0985 38.6052 11.7822L38.7202 11.947C38.83 11.9128 38.7969 11.9213 38.881 11.8095C39.0406 12.1613 38.7784 12.4194 38.8865 12.5191C39.3129 12.9124 39.353 13.8537 39.4304 14.4439L39.4444 14.4022C39.5138 14.7836 39.4962 14.8781 39.4331 15.2463C38.8646 12.9665 38.3981 11.7105 37.1351 9.71127C36.7448 9.09346 36.2408 8.34305 35.9295 7.69928C35.6782 7.5392 35.5626 7.49145 35.2842 7.37789Z" fill="white"/>
<path d="M22.8538 21.1125C22.8305 20.857 22.8083 20.7585 22.9216 20.5497L23.0317 20.5258C23.2659 20.7689 23.1723 22.916 23.1841 23.4244C23.376 23.2508 23.0198 20.7958 23.3816 20.3184C23.2398 22.6022 23.1223 25.2037 24.7627 26.9924C25.2294 27.5012 26.3062 28.5284 26.8585 28.9717C27.0028 29.0874 27.4828 29.2103 27.6701 29.3069C27.2042 29.39 26.5659 29.2863 26.187 28.9836C26.0962 28.5524 25.9756 28.8072 25.5688 28.5156C25.5679 28.452 25.5657 28.3884 25.5623 28.3249C25.5392 27.9493 24.9778 27.9856 24.9264 27.8315C24.8622 27.3776 24.3957 27.2675 24.2797 27.0788C24.0265 26.6669 23.6717 25.7167 23.3814 25.3234C23.2226 25.1082 23.6236 24.2958 23.0639 24.081C22.8899 24.0142 22.8476 23.4172 22.8427 23.2591L22.9299 23.321L23.0321 23.3716C23.164 23.1212 23.1558 21.0344 22.9894 20.7673L22.9153 20.8004L22.8538 21.1125Z" fill="white"/>
<path d="M33.301 53.0655C33.9317 53.0362 34.6955 52.9261 35.2716 52.9106L35.4267 53.0176L35.4423 53.0919L35.1025 53.1851L35.0796 53.2347C35.5903 53.3883 43.2435 53.3513 44.0893 53.2455C43.9394 53.1198 43.3306 53.1351 43.2036 53.094C43.3508 53.0612 43.9859 53.1001 44.2877 53.0626L44.359 52.9631C44.6556 52.9474 47.2326 52.9695 47.2924 53.1497C47.7358 54.4867 47.4706 56.3203 47.5558 57.7404C47.5742 58.0486 47.6108 59.0104 47.5682 59.2506C47.3337 58.1216 47.6845 53.9308 47.2106 53.4305C46.4605 53.2502 44.7433 53.3695 43.8872 53.37L37.6052 53.3705C36.9308 53.3721 33.6308 53.3285 33.1894 53.4377C33.0386 53.6178 33.0316 53.9113 32.9838 54.174C32.9515 53.5766 32.9317 53.5491 33.301 53.0655Z" fill="white"/>
<path d="M21.8466 23.2783C21.986 23.6288 22.0281 24.1432 22.0475 24.5241C22.1381 24.5322 22.1676 24.5354 22.2457 24.5894C22.8157 25.5417 23.1718 26.6872 23.8924 27.5539C24.053 27.7471 24.1737 27.8467 24.1643 28.1122C24.8524 28.9046 25.6373 29.5064 26.4575 30.143C26.5596 30.2222 26.6909 30.4277 26.7224 30.5554C26.2201 30.3331 25.5121 29.7965 25.0884 29.5331C24.1236 28.9336 21.9822 25.5182 21.8588 24.5294C21.8062 24.1347 21.8346 23.6817 21.8466 23.2783Z" fill="white"/>
<path d="M13.2635 53.0013C14.015 53.0592 14.942 52.9744 15.6951 52.9102C15.8436 53.0233 15.872 53.0504 16.0593 53.0933C15.875 53.1146 15.613 53.1281 15.4603 53.2183C15.8201 53.365 23.5978 53.2907 24.4009 53.2904C23.2543 52.9265 22.151 53.224 21.0194 53.0895C21.9447 53.0368 23.2618 53.0585 24.2047 53.0757C24.7857 53.141 25.8051 53.1397 26.3905 53.1325C25.9769 53.0288 25.5719 53.0883 25.123 52.9746L25.07 52.9607L27.1633 52.9465C27.1176 53.1976 27.0894 53.2031 27.1984 53.3858C27.3935 53.442 27.4661 53.4105 27.658 53.3626L27.6804 53.4163L27.6662 53.4748L27.485 53.474C27.3867 53.6221 27.4139 53.5579 27.4244 53.7799L27.2262 53.8305C27.2718 53.5501 27.3015 53.6334 27.1682 53.4333C26.5678 53.3136 25.2021 53.3559 24.5293 53.3601L21.137 53.364L16.0752 53.361C15.3101 53.3604 14.0247 53.324 13.2977 53.3899C13.167 53.52 13.1553 53.7857 13.1281 53.9767C13.0974 53.593 13.1722 53.372 13.2635 53.0013Z" fill="white"/>
<path d="M3.79908 32.2334L3.80112 25.1429C3.80339 24.8349 3.80473 23.0194 3.86816 22.8052L3.97898 22.7505C4.01569 25.574 4.02546 28.3979 4.00831 31.2216C4.00557 32.4121 3.93619 33.963 3.989 35.1063L3.88871 35.1628C3.73823 34.9331 3.79718 32.6771 3.79908 32.2334Z" fill="white"/>
<path d="M27.7272 32.8325C27.8605 33.0151 27.9512 34.7794 27.9805 35.1272L28.0948 35.0553C28.094 34.6926 28.0629 34.3418 28.2859 34.0451L28.3208 34.0254C28.4572 34.6746 28.7464 37.2432 28.9309 37.5391L29.0189 37.5574L29.0705 37.487L28.9515 37.065C29.3189 37.322 29.1026 37.792 29.9059 37.6816C30.0078 37.5244 29.9912 37.2715 29.997 37.0752C30.1619 37.5689 30.1167 37.6926 30.01 38.1908C29.5352 38.2683 29.1863 38.2067 28.7128 38.1515C28.6284 36.8453 28.2825 36.274 27.8543 35.0895C27.7085 34.686 27.7251 33.32 27.7272 32.8325Z" fill="white"/>
<path d="M7.0625 16.8701C8.61254 17.1508 10.1272 18.9873 11.0191 20.2092C11.3302 20.6355 11.4235 20.9067 11.5744 21.4073C11.2483 21.2115 11.2481 21.0268 11.1197 20.6753C11.0079 20.7604 11.1975 20.8322 11.1192 21.0756C11.0067 21.0048 10.9011 20.6991 10.868 20.584C10.7401 20.1375 10.3802 20.1651 10.0837 19.8899C9.98486 19.7981 9.92797 19.3045 9.75723 19.1772C9.1151 19.0424 9.40531 18.5147 9.12758 18.433C8.40523 18.2204 8.73025 18.2085 8.46213 17.95C7.79674 17.3085 7.68887 17.9044 7.0625 16.8701Z" fill="white"/>
<path d="M36.4836 25.6157C36.4659 25.8592 36.3728 26.0879 36.1662 26.2208C34.8697 27.0541 33.276 28.8047 32.0317 29.5083C32.3199 29.6538 32.2616 30.0114 32.4094 30.0634C32.6477 30.1474 33.1611 29.8777 33.5296 29.9112C33.4828 29.9376 33.2616 30.0582 33.233 30.0814C32.259 30.4098 32.407 30.1429 31.4681 30.1605C31.4646 29.9238 31.492 29.6016 31.5054 29.3587C32.1094 29.1837 36.1062 26.1036 36.4836 25.6157Z" fill="white"/>
<path d="M49.7412 19.4258L49.7209 19.4626C49.5097 19.8423 49.1328 20.1713 48.9791 20.5729C48.7627 21.1379 48.7982 24.131 48.8558 24.8467C48.8916 25.2919 49.0537 25.8185 48.9965 26.2517C48.5832 24.8511 47.9236 22.7568 48.4431 21.3123C48.6222 21.1954 48.7004 21.0784 48.7638 20.8773C48.961 20.252 49.242 19.8511 49.7412 19.4258ZM48.8399 22.7057C48.8064 22.4113 48.8475 21.6466 48.6299 21.5287C48.6237 21.784 48.5676 22.5346 48.7088 22.7034L48.8399 22.7057Z" fill="white"/>
<path d="M48.6305 21.5283C48.8481 21.6462 48.8069 22.4109 48.8404 22.7054L48.7093 22.703C48.5682 22.5343 48.6242 21.7836 48.6305 21.5283Z" fill="white"/>
<path d="M15.6943 52.91C16.4764 52.801 17.976 52.8375 18.8177 52.8372C20.4435 52.8289 22.0694 52.8359 23.6951 52.8583C23.8495 52.8945 24.0047 52.9267 24.1608 52.9549L24.204 53.0755C23.261 53.0584 21.944 53.0367 21.0187 53.0893C19.4884 53.0427 17.5924 53.0757 16.0586 53.0931C15.8712 53.0503 15.8429 53.0231 15.6943 52.91Z" fill="white"/>
<path d="M35.4428 53.0918L43.204 53.0939C43.331 53.135 43.9399 53.1197 44.0898 53.2454C43.2439 53.3512 35.5908 53.3882 35.0801 53.2346L35.103 53.185L35.4428 53.0918Z" fill="white"/>
<path d="M16.059 53.0931C17.5928 53.0757 19.4888 53.0427 21.0191 53.0893C22.1507 53.2239 23.254 52.9264 24.4005 53.2903C23.5975 53.2906 15.8197 53.3648 15.46 53.2182C15.6127 53.128 15.8747 53.1145 16.059 53.0931Z" fill="white"/>
<path d="M35.2715 52.9105C35.9008 52.8026 37.4766 52.8359 38.1877 52.8359C39.9522 52.832 41.7167 52.8394 43.4811 52.8581L43.7155 52.9649L43.7165 53.0087C43.1523 53.0743 41.432 53.0405 40.7948 53.0373C39.0294 53.0283 37.184 53.0637 35.4266 53.0175L35.2715 52.9105Z" fill="white"/>
<path d="M55.7713 37.2689C55.7838 36.4984 55.7419 30.9806 55.816 30.7523L55.9192 30.7109L56.0028 30.7889C56.049 31.1451 55.9928 32.8462 56.0113 33.4269C56.0114 34.4533 56.0845 36.3066 56.0279 37.2454L55.7713 37.2689Z" fill="white"/>
<path d="M56.0302 23.2059L56.089 23.1973C55.8853 23.8294 56.0923 24.9647 56.0029 25.461C55.9056 26.0019 55.9817 30.1816 55.8483 30.3404C55.7068 29.3812 55.8086 27.5211 55.7862 26.4728C55.7743 25.9191 55.7581 24.0185 55.8166 23.5259L55.7804 23.4459C55.8271 23.4373 55.9122 23.4047 55.9608 23.3881L56.0302 23.2059ZM55.9328 23.94L55.9394 23.7987L55.8681 23.8109L55.8585 23.952L55.9328 23.94Z" fill="white"/>
<path d="M55.868 23.811L55.9393 23.7988L55.9327 23.9401L55.8584 23.9521L55.868 23.811Z" fill="white"/>
<path d="M46.2736 51.2856C46.691 51.3266 47.1216 51.3623 47.5381 51.4038C48.4875 51.498 48.9128 51.6735 48.9182 52.6542C48.4275 51.0687 46.8848 52.1644 46.1612 51.7467L46.3503 51.7621L46.3493 51.6706L46.2721 51.6355L46.1612 51.7467C46.0901 51.6367 46.1058 51.4871 46.1179 51.3625L46.2736 51.2856Z" fill="white"/>
<path d="M27.2254 53.8305L27.4237 53.7798C27.4357 54.841 27.4864 57.6601 27.3778 58.5807L27.3178 58.62C27.1328 58.0443 27.1878 54.5864 27.2254 53.8305Z" fill="white"/>
<path d="M31.4179 56.3911C31.5432 56.8263 31.3987 57.2689 31.548 57.6424C31.8189 57.7426 31.9512 57.6013 32.3127 57.7688C32.2614 57.8472 32.2408 57.8342 32.136 57.8783C32.304 58.0843 32.682 58.1536 32.8911 57.9912C32.8531 58.2009 32.8166 58.4109 32.7816 58.6209C32.3957 58.4684 32.1089 58.1781 31.8168 58.2056C31.7461 58.3193 31.7307 58.375 31.685 58.502L31.5816 58.538C31.3465 58.2809 31.4123 56.8171 31.4179 56.3911Z" fill="white"/>
<path d="M29.3033 27.7836C29.2247 27.1698 29.253 25.6231 29.384 25.0038C29.4024 24.9171 29.4824 24.9078 29.585 24.859C29.5633 24.6268 29.5503 24.5356 29.583 24.3057L29.6348 24.311L29.6492 24.7336L29.7129 24.775C29.7593 24.6595 29.7531 24.6355 29.7554 24.5069L29.7558 24.4676L29.954 24.4111C29.9228 24.7932 29.8525 24.9288 29.7403 25.2822C29.4914 26.0661 29.3971 26.9721 29.3033 27.7836Z" fill="white"/>
<path d="M47.0972 54.1909C47.2979 54.5858 47.1542 57.8045 47.138 58.4219C46.8337 58.1 47.0071 54.7671 47.0972 54.1909Z" fill="white"/>
<path d="M21.3356 21.4013C21.384 21.0871 21.2673 20.584 21.5619 20.4463C21.6112 21.4458 21.5899 22.5082 21.5758 23.5111L21.3125 23.4766C21.3781 22.8964 21.3424 22.0068 21.3356 21.4013Z" fill="white"/>
<path d="M3.75824 22.8596C3.87158 22.5406 3.71948 22.3179 3.85015 22.0105L3.97904 21.9614L3.97891 22.7505L3.86809 22.8052C3.80466 23.0195 3.80333 24.8349 3.80105 25.1429L3.79901 32.2334L3.75247 32.2496C3.71146 31.3036 3.74313 30.1181 3.74283 29.1575L3.75824 22.8596Z" fill="white"/>
<path d="M28.6076 23.6084C28.6044 23.7121 28.5864 24.1335 28.5597 24.2247C28.4406 24.6326 28.5009 26.755 28.3573 26.9748L28.2905 26.9499C28.1975 26.6213 28.241 25.9898 28.2414 25.6155C28.267 25.653 28.3276 25.7123 28.3613 25.7478L28.4249 25.6719C28.4464 25.4932 28.4613 25.2102 28.3 25.1028C28.2008 25.2416 28.2301 25.3909 28.2348 25.5713L28.2156 25.5296C28.0699 25.2048 28.207 25.1945 28.0877 24.9752C28.0171 25.1143 27.9325 25.5159 27.8831 25.6962C27.8707 25.3884 27.7989 25.1144 28.0221 24.8889C28.4773 24.8983 28.3948 24.6871 28.4536 24.2952C28.4914 24.0434 28.5356 23.852 28.6076 23.6084Z" fill="white"/>
<path d="M43.4812 52.8584C43.7622 52.8848 44.0862 52.906 44.3591 52.9633L44.2878 53.0628C43.986 53.1003 43.3509 53.0614 43.2037 53.0942L35.4424 53.0921L35.4268 53.0178C37.1842 53.0641 39.0296 53.0287 40.7949 53.0376C41.4321 53.0409 43.1525 53.0746 43.7167 53.009L43.7157 52.9652L43.4812 52.8584Z" fill="white"/>
<path d="M28.7252 53.7345L28.7944 53.7207C28.9258 54.3976 28.808 56.1218 28.8486 56.8636C28.8605 57.0816 28.8239 57.4988 28.8543 57.7021C28.8473 57.9314 28.8708 58.1301 28.7223 58.2982C28.7075 56.777 28.7085 55.2557 28.7252 53.7345Z" fill="white"/>
<path d="M31.4688 30.1607C32.4077 30.1431 32.2597 30.41 33.2337 30.0815C32.9157 30.3582 31.8684 30.8049 31.4645 30.5935C31.3827 30.3811 31.4154 30.4197 31.4688 30.1607Z" fill="white"/>
<path d="M41.3868 16.7944C41.42 16.8121 41.4964 16.8797 41.5298 16.9073C41.7093 17.344 41.6062 18.4322 41.5017 18.8963L41.4167 18.8438C41.2864 18.4234 41.3208 17.2336 41.3868 16.7944Z" fill="white"/>
<path d="M56.0107 33.4272C56.1702 34.0833 56.0106 35.369 56.1024 35.8454L56.1438 35.7921L56.1409 35.828C56.222 35.569 56.2247 35.4634 56.2436 35.1898C56.2493 35.5537 56.2687 36.9554 56.2107 37.2672L56.0273 37.2457C56.0839 36.307 56.0108 34.4536 56.0107 33.4272Z" fill="white"/>
<path d="M3.753 32.2496L3.79953 32.2334C3.79763 32.6771 3.73869 34.9332 3.88916 35.1629L3.98945 35.1064C3.99069 35.4395 4.00291 36.1923 3.87992 36.4722L3.82668 36.4258C3.7018 35.3777 3.71955 33.3204 3.753 32.2496Z" fill="white"/>
<path d="M27.0821 14.3492C27.0797 14.2514 27.0757 14.1032 27.1416 14.03C27.6855 13.4264 27.8426 13.196 28.6393 13.0791C28.1374 13.4818 27.575 13.9671 27.0821 14.3492Z" fill="white"/>
<path d="M11.7181 57.9883C11.7879 58.2774 11.747 58.3347 11.9318 58.5013C12.1404 58.5058 12.4197 58.2895 12.6457 58.1645C12.7877 58.1803 12.8545 58.2011 12.9844 58.1475C13.0726 57.9482 13.0843 57.8435 13.1218 57.6304C13.136 57.9863 13.0865 58.2535 13.0357 58.6037C12.5352 58.5622 11.9531 58.6822 11.7157 58.4514C11.6793 58.2697 11.699 58.1687 11.7181 57.9883Z" fill="white"/>
<path d="M56.0307 23.206C55.9973 22.977 56.0437 21.4707 56.1064 21.3154L56.1066 21.3168L56.1284 21.33C56.2674 21.7624 56.2867 22.8785 56.2493 23.3578L56.2017 23.3093C56.2141 23.0528 56.2054 22.9621 56.1698 22.7062C56.0821 22.8407 56.0968 23.0272 56.0895 23.1973L56.0307 23.206ZM56.1871 22.4097C56.1922 22.2478 56.2242 22.2108 56.1393 22.1125L56.1023 22.3272C56.141 22.3736 56.1444 22.3953 56.1871 22.4097Z" fill="white"/>
<path d="M56.1396 22.1128C56.2245 22.2111 56.1924 22.248 56.1874 22.41C56.1447 22.3956 56.1412 22.3739 56.1025 22.3274L56.1396 22.1128Z" fill="white"/>
<path d="M23.6953 52.8583C24.1804 52.8498 24.5902 52.9049 25.0695 52.9605L25.1225 52.9745C25.5714 53.0882 25.9764 53.0287 26.39 53.1324C25.8046 53.1395 24.7852 53.1408 24.2042 53.0756L24.161 52.9549C24.005 52.9267 23.8497 52.8945 23.6953 52.8583Z" fill="white"/>
<path d="M28.7109 53.2038L28.812 53.1426C28.9303 53.3454 28.9569 57.5172 28.8548 57.7021C28.8245 57.4988 28.8611 57.0817 28.8492 56.8636C28.8086 56.1218 28.9264 54.3976 28.795 53.7207L28.7258 53.7346L28.7109 53.2038Z" fill="white"/>
<path d="M21.5758 23.5111C21.517 23.6805 21.5299 23.7065 21.5912 23.8776L21.676 23.862C21.7945 23.6432 21.7337 23.3341 21.8255 22.9872L21.8402 22.9331L21.8463 23.2781C21.8343 23.6815 21.8059 24.1345 21.8584 24.5292C21.701 24.0662 21.7614 24.2283 21.3811 23.942C21.3291 23.7848 21.3263 23.6417 21.3125 23.4766L21.5758 23.5111Z" fill="white"/>
<path d="M22.8536 21.1128L22.9151 20.8006L22.9891 20.7676C23.1555 21.0346 23.1638 23.1215 23.0318 23.3719L22.9296 23.3213C23.0452 23.1812 23.0244 22.8384 23.0311 22.6353C23.0357 22.3099 23.0662 21.4749 22.9915 21.2135L22.9201 21.2678L22.8486 21.2778L22.8536 21.1128Z" fill="white"/>
<path d="M22.9204 21.2677L22.9918 21.2134C23.0665 21.4748 23.0359 22.3098 23.0314 22.6352L22.9808 22.6587L22.9159 22.5911C22.8657 22.1837 22.9028 21.6854 22.9204 21.2677Z" fill="white"/>
<path d="M33.7676 41.9038C34.045 41.9486 33.9928 41.9001 34.1792 42.0655C34.2577 42.2836 34.2649 42.2086 34.2019 42.3809C34.0106 42.461 33.9654 42.4004 33.7796 42.2862L33.7676 41.9038Z" fill="white"/>
<path d="M27.1625 52.9468L27.252 52.9686C27.4022 53.0793 27.4619 53.144 27.652 53.137L27.6572 53.3629C27.4653 53.4108 27.3928 53.4422 27.1977 53.386C27.0887 53.2033 27.1168 53.1979 27.1625 52.9468Z" fill="white"/>
<path d="M22.8489 21.2775L22.9204 21.2676C22.9028 21.6853 22.8657 22.1836 22.916 22.591L22.9808 22.6585L23.0314 22.635C23.0247 22.8382 23.0455 23.181 22.9299 23.3211L22.8428 23.2591C22.8779 22.9867 22.8487 21.6571 22.8489 21.2775Z" fill="white"/>
<path d="M21.3356 21.4013C21.3166 21.1168 21.2762 20.1417 21.4836 19.9775C21.5924 20.1247 21.5654 20.2558 21.5619 20.4463C21.2673 20.584 21.384 21.0871 21.3356 21.4013Z" fill="white"/>
<path d="M3.86245 21.0581C3.94847 21.4066 3.95618 21.6077 3.97883 21.9616L3.84994 22.0107C3.71927 22.318 3.87136 22.5408 3.75803 22.8598C3.71337 22.1792 3.78397 21.7247 3.86245 21.0581Z" fill="white"/>
<path d="M28.2351 25.5715C28.2305 25.3911 28.2012 25.2418 28.3004 25.103C28.4617 25.2104 28.4468 25.4934 28.4253 25.6721L28.3616 25.748C28.3279 25.7125 28.2674 25.6532 28.2418 25.6157L28.2351 25.5715Z" fill="white"/>
<path d="M56.0273 37.2456L56.2107 37.2671C56.1339 37.4918 56.2543 37.4671 56.1504 37.7559C56.0457 37.6161 56.0482 37.4281 56.0273 37.2456Z" fill="white"/>
<path d="M27.252 52.9685C27.4482 52.932 27.4976 52.8831 27.6318 52.9654L27.652 53.1369C27.4618 53.1439 27.4022 53.0792 27.252 52.9685Z" fill="white"/>
<path d="M46.1611 51.7464L46.272 51.6353L46.3492 51.6704L46.3502 51.7619L46.1611 51.7464Z" fill="white"/>
<path d="M24.0752 58.4859C24.3101 58.5595 24.4338 58.5709 24.6803 58.5991C24.6025 58.8077 24.4944 58.8762 24.4031 59.1218C23.9835 59.5143 23.1749 59.205 22.5777 59.3485C22.2257 59.3579 22.1137 59.3397 21.7714 59.2805L21.5771 59.2987C21.7702 59.2442 21.8377 59.2401 21.9274 59.0907C21.8906 58.9694 21.8545 58.8481 21.8192 58.7268L21.9703 58.5727L22.0361 58.5299C22.6693 58.4603 23.4332 58.4782 24.0752 58.4859Z" fill="white"/>
<path d="M38.1677 58.5895L38.2214 58.5863C38.26 58.6007 38.2973 58.6212 38.3389 58.6177L38.3985 58.7407L38.4514 58.7108L38.4638 58.7477C38.1933 58.886 38.2303 58.7436 38.066 58.9557L38.1943 59.1456C38.165 59.2598 38.1563 59.2622 38.0682 59.3466C37.8764 59.4069 36.0283 59.4128 35.806 59.3348C35.7202 58.2291 37.3463 58.6979 38.1121 58.5971L38.1677 58.5895Z" fill="white"/>
<path d="M35.9816 57.9918C36.5279 57.9486 37.5937 57.8723 38.1062 58.0035C38.0312 58.1124 37.987 58.2271 37.8796 58.2335C37.5546 58.2531 36.5724 58.212 36.2918 58.3393C36.6072 58.3886 37.4619 58.4406 37.621 58.4817C37.0181 58.4921 36.1898 58.4336 35.6523 58.595C35.3816 58.663 35.4311 58.6073 35.2827 58.7936C35.2516 59.0034 35.2608 59.0919 35.2727 59.3022L35.3689 59.4001L35.567 59.3597L35.4834 59.4517C35.5006 59.638 35.5279 59.8161 35.4954 60.0001H35.3135C35.2737 59.6515 34.9918 58.7667 35.3906 58.605C35.8037 58.4379 35.8188 58.4069 35.9816 57.9918ZM37.94 58.1305C37.7112 57.8935 36.8097 58.0066 36.4677 58.0414C36.7329 58.2448 37.5602 58.1853 37.8853 58.1388L37.94 58.1305Z" fill="white"/>
<path d="M36.4668 58.0415C36.8088 58.0067 37.7103 57.8935 37.9391 58.1305L37.8844 58.1389C37.5593 58.1854 36.7321 58.2449 36.4668 58.0415Z" fill="white"/>
<path d="M21.7715 59.2803C22.1138 59.3395 22.2258 59.3576 22.5778 59.3482L22.5818 59.4121L22.2268 59.4186L22.1685 59.4965L22.2159 59.6107C22.4343 59.6518 22.3936 59.6805 22.5485 59.5914C22.5634 59.5316 22.5852 59.4707 22.5818 59.4121C22.9818 59.3846 23.5381 59.2773 23.8345 59.5059C23.9014 59.7361 23.8598 59.7326 23.7974 59.9998H23.4147L23.536 59.9436C23.6079 59.7877 23.6078 59.8492 23.5573 59.7115C23.2747 59.551 23.0162 59.5422 22.7134 59.6705C22.5931 59.7221 22.5829 59.8779 22.5476 59.9998H21.8927C21.8696 59.6154 22.0766 59.5516 21.7715 59.2803Z" fill="white"/>
<path d="M36.3711 60C36.413 59.7369 36.3642 59.785 36.5292 59.6344C36.9516 59.5219 37.6355 59.4293 38.0383 59.6443C38.1194 59.7668 38.0984 59.85 38.0923 60H36.3711Z" fill="white"/>
<path d="M35.3243 59.2904C35.498 59.2863 35.6523 59.2635 35.806 59.3349C36.0283 59.4129 37.8764 59.407 38.0682 59.3467L38.2292 59.349L38.2129 59.4228C38.1784 59.6185 38.1556 59.8025 38.1314 60H38.0923C38.0983 59.85 38.1193 59.7668 38.0383 59.6443C37.6355 59.4293 36.9515 59.5218 36.5291 59.6343C36.3642 59.7849 36.413 59.7369 36.371 60H36.2059C36.1874 59.806 36.1932 59.6168 35.9796 59.5629C35.8528 59.7357 35.8922 59.7492 35.8734 60H35.8157C35.7727 59.6795 35.8824 59.6285 35.7668 59.3859L35.5667 59.3595L35.3686 59.4L35.2725 59.3021L35.3243 59.2904Z" fill="white"/>
<path d="M24.6807 58.5991C25.0268 59.0333 24.7033 59.3632 24.3267 59.6474C24.242 59.7112 24.1949 59.8946 24.1536 60.0001H23.7978C23.8602 59.7329 23.9018 59.7364 23.8348 59.5062C23.5385 59.2776 22.9821 59.3849 22.5821 59.4124L22.5781 59.3485C23.1753 59.205 23.9839 59.5144 24.4035 59.1218C24.4948 58.8763 24.6029 58.8077 24.6807 58.5991Z" fill="white"/>
<path d="M22.0361 58.53C21.9699 58.3062 21.9468 58.2481 21.9473 58.0156L22.0655 58.1765C22.3802 58.2222 23.8025 58.2736 24.0196 58.1307L24.0752 58.4861C23.4332 58.4783 22.6693 58.4604 22.0361 58.53Z" fill="white"/>
<path d="M35.652 58.5949C36.1895 58.4335 37.0178 58.4921 37.6207 58.4816C37.7903 58.5039 37.9572 58.5179 38.1194 58.5704L38.1676 58.5896L38.112 58.5973C37.3462 58.6981 35.7201 58.2292 35.8059 59.335C35.6523 59.2635 35.498 59.2864 35.3242 59.2905C35.3746 58.9571 35.4936 59.178 35.7079 58.9582L35.5673 58.7895L35.652 58.5949Z" fill="white"/>
<path d="M21.9473 58.0153C22.291 57.9423 23.6649 57.9079 23.9584 58.04L24.0196 58.1303C23.8025 58.2732 22.3802 58.2219 22.0655 58.1762L21.9473 58.0153Z" fill="white"/>
<path d="M21.5774 59.2987L21.3878 59.3046C21.2604 59.229 21.2585 59.181 21.1992 59.0345C21.2058 58.5691 21.6298 58.6097 21.9705 58.5728L21.8195 58.7269C21.8548 58.8481 21.8909 58.9694 21.9277 59.0907C21.838 59.2401 21.7705 59.2442 21.5774 59.2987Z" fill="white"/>
<path d="M38.1054 58.0034C38.1227 58.1914 38.0978 58.223 38.0075 58.3834C38.0426 58.4439 38.0802 58.5132 38.119 58.5704C37.9568 58.5179 37.7898 58.5039 37.6202 58.4816C37.4612 58.4405 36.6064 58.3886 36.291 58.3392C36.5716 58.2119 37.5539 58.253 37.8788 58.2335C37.9862 58.227 38.0304 58.1123 38.1054 58.0034Z" fill="white"/>
<path d="M22.5479 60C22.5832 59.8781 22.5933 59.7222 22.7137 59.6707C23.0164 59.5423 23.2749 59.5511 23.5575 59.7117C23.608 59.8494 23.6081 59.7878 23.5363 59.9437L23.4149 60H22.5479Z" fill="white"/>
<path d="M38.2208 58.5864L38.7448 58.609C38.7195 58.892 38.7468 59.1328 38.5714 59.3156C38.4568 59.3232 38.3426 59.3344 38.2287 59.349L38.0677 59.3467C38.1558 59.2623 38.1644 59.26 38.1937 59.1457L38.0654 58.9559C38.2298 58.7437 38.1928 58.8861 38.4632 58.7479L38.4509 58.7109L38.3979 58.7408L38.3384 58.6178C38.2968 58.6213 38.2594 58.6008 38.2208 58.5864Z" fill="white"/>
<path d="M38.7453 58.6089C38.8742 58.9171 38.6744 59.38 38.6593 59.7251C38.5854 59.8505 38.6165 59.8446 38.5107 59.8821C38.4756 59.738 38.4357 59.595 38.3912 59.4532L38.2129 59.4228L38.2292 59.3489C38.3431 59.3343 38.4573 59.3231 38.572 59.3155C38.7473 59.1327 38.72 58.8919 38.7453 58.6089Z" fill="white"/>
<path d="M38.2124 59.4229L38.3907 59.4533C38.4352 59.5951 38.475 59.7381 38.5102 59.8822C38.616 59.8447 38.5849 59.8506 38.6588 59.7252L38.6547 60H38.1309C38.1551 59.8025 38.1779 59.6186 38.2124 59.4229Z" fill="white"/>
<path d="M35.566 59.3594L35.7661 59.3857C35.8817 59.6283 35.772 59.6793 35.8151 59.9998H35.4944C35.527 59.8158 35.4997 59.6377 35.4824 59.4514L35.566 59.3594Z" fill="white"/>
<path d="M35.2719 59.302C35.26 59.0916 35.2508 59.0031 35.2819 58.7934C35.4303 58.607 35.3808 58.6627 35.6515 58.5947L35.5668 58.7893L35.7074 58.958C35.4931 59.1777 35.374 58.9568 35.3237 59.2902L35.2719 59.302Z" fill="white"/>
<path d="M35.873 60.0001C35.8918 59.7493 35.8524 59.7358 35.9793 59.563C36.1929 59.6169 36.1871 59.8062 36.2056 60.0001H35.873Z" fill="white"/>
<path d="M22.5822 59.4121C22.5857 59.4707 22.5639 59.5316 22.5489 59.5914C22.3941 59.6805 22.4347 59.6518 22.2163 59.6107L22.1689 59.4965L22.2272 59.4186L22.5822 59.4121Z" fill="white"/>
</g>
<defs>
<clipPath id="clip0_5208_92">
<rect width="60" height="60" fill="white"/>
</clipPath>
</defs>
</svg>
