<svg width="60" height="60" viewBox="0 0 60 60" fill="none" xmlns="http://www.w3.org/2000/svg">
<path d="M51.5813 14.021C51.725 14.0871 51.7684 14.2277 51.8341 14.3721C51.7784 14.6656 51.7261 14.7099 51.4721 14.8803C47.6843 17.4138 44.3578 19.8559 39.5518 18.8529C37.9899 18.527 36.4826 17.9494 34.9174 17.6238C32.6937 17.1616 30.6316 17.5756 28.7361 18.8242C27.3511 19.7369 21.7864 24.6074 21.5044 26.0365C21.4127 26.5008 21.5253 27.0176 21.7912 27.4092C22.1009 27.865 22.597 28.0828 23.1248 28.1847C25.639 28.6703 27.2192 25.9559 29.0509 24.7387C29.9275 24.1563 30.9268 23.8525 31.9752 24.0717C32.5467 24.1925 33.0825 24.4421 33.5426 24.8016C34.8394 25.7969 36.9739 28.1329 38.2394 29.3866C39.8983 31.0295 42.0172 32.9898 43.4766 34.7974C43.9021 35.4511 44.0347 36.618 43.8275 37.3371C43.2905 39.2011 41.635 39.7829 39.9016 39.3744C39.2354 42.1767 38.2495 42.8679 35.3975 42.4046C35.3017 42.8383 35.1992 43.2508 34.9686 43.6356C34.5575 44.3236 34.0462 44.8942 33.243 45.0883C32.3328 45.3079 31.3702 45.0919 30.5848 44.6074C29.8577 44.1584 22.3289 36.7158 22.2499 36.3118C22.215 36.1336 22.3866 35.9658 22.4861 35.8212C24.9067 37.4545 29.7092 44.0432 32.0932 44.4367C32.6291 44.5253 33.165 44.4229 33.6061 44.0972C34.533 43.4122 34.6634 42.2711 34.8149 41.2207C36.3645 42.1248 38.0857 42.3034 38.8744 40.3187C39.173 39.5676 39.046 39.0038 38.9747 38.2092C41.0769 39.0834 43.6325 39.3075 43.0532 35.5546C43.0064 35.2505 41.3398 33.4367 41.0034 33.1485C38.0534 30.618 35.4933 26.843 32.1835 24.9284C29.1701 23.4596 26.1915 30.3182 22.7737 28.9145C21.9802 28.5886 21.3621 28.2343 20.9914 27.4851C20.7026 26.8873 20.6616 26.1997 20.8775 25.572C21.3239 24.262 23.7495 22.2881 24.7401 21.2581C29.3236 16.4918 32.3372 15.7979 38.5859 17.8869C39.8905 18.3229 41.6696 18.6597 43.1334 18.4133C46.1302 17.9093 48.9855 15.3156 51.5813 14.021Z" fill="#A2A39C"/>
<path d="M5.04082 27.2363C5.82655 27.4065 8.15803 28.6938 8.90333 29.1207C10.931 30.3571 13.6909 31.8169 15.2944 33.5627C18.0304 36.5415 20.1511 40.0378 23.3112 42.6629C24.7732 43.8774 26.038 44.0786 27.7941 44.5989C27.9445 44.6434 27.9738 45.0072 28.0048 45.1567C27.8785 45.1571 27.677 45.1505 27.5558 45.1419C21.2502 44.6922 17.9621 36.6885 13.7072 33.1165C11.4709 31.4295 9.04515 29.9293 6.52106 28.7127C6.06831 28.4944 5.43174 28.2175 5.08026 27.8417C4.94267 27.6946 5.01898 27.4418 5.04082 27.2363Z" fill="#A2A39C"/>
<path d="M8.26378 14C9.63662 14.1982 13.9758 18.1054 17.1033 18.4386C20.5392 18.8049 23.0517 16.9153 25.7962 17.0816C26.0405 17.2748 25.9821 17.3235 26.0501 17.6894C22.6725 17.9271 19.6386 19.6895 16.1806 18.9261C13.933 18.4301 10.1357 15.9986 8.23871 14.528C8.11126 14.4292 8.22289 14.1587 8.26378 14Z" fill="#A2A39C"/>
<path d="M54.7372 27.2939C54.9867 27.4665 54.9945 27.5192 55.0001 27.7874C54.8519 28.0301 51.8897 29.5718 51.4418 29.7904C49.6783 30.6506 46.9667 32.9093 45.3814 33.6097C45.153 33.469 45.2266 33.5392 45.094 33.2894C45.514 32.0818 53.1887 28.0071 54.7372 27.2939Z" fill="#A2A39C"/>
</svg>
