<svg width="60" height="60" viewBox="0 0 60 60" fill="none" xmlns="http://www.w3.org/2000/svg">
<path d="M16.9961 11.5604C18.4996 11.4058 23.0257 11.5519 24.7666 11.5487L43.0273 11.5526C44.1655 12.6477 46.4311 15.5059 47.5439 16.8358C48.8066 18.3446 50.9418 20.7484 52 22.2537C51.558 22.6536 50.692 23.7423 50.2666 24.2469L47.1045 27.9891L36.207 40.8016C34.3261 43.0478 32.0412 45.9394 30.0371 47.995C26.9735 44.7082 24.0059 40.9238 21.0537 37.493C16.6898 32.4216 12.2902 27.3473 8 22.2157C8.77731 20.9816 11.0534 18.5092 12.1006 17.2977C13.644 15.5121 15.4052 13.2427 16.9961 11.5604ZM21.4414 22.5438C21.9645 24.3034 22.7136 26.2741 23.3887 28.0067C25.6951 33.9262 27.5843 40.2587 30.0146 46.1043C30.914 43.944 31.5991 41.9824 32.3867 39.786L38.6562 22.5428L21.4414 22.5438ZM39.5244 22.5428C37.9279 26.105 36.153 31.6336 34.7373 35.4012C33.6666 38.2508 31.8046 43.0903 31.0312 45.868C32.4727 43.8913 34.688 41.4381 36.334 39.5096C41.159 33.9589 45.9883 28.1882 50.7461 22.5653C47.0056 22.5389 43.2649 22.5312 39.5244 22.5428ZM23.707 39.4305C24.2491 40.066 28.4716 45.1799 28.8594 45.408C28.4927 43.7557 26.7971 39.6566 26.1416 37.8202L22.3994 27.4461C21.8876 26.0435 21.1716 23.8825 20.6074 22.5506L9.26953 22.535L23.707 39.4305ZM29.9697 12.4754C27.1299 15.45 24.4519 18.8204 21.6191 21.8182L29.9795 21.8289C32.7633 21.8273 35.6424 21.8639 38.418 21.8202C37.4964 20.7756 30.4855 12.7342 29.9697 12.4754ZM42.9814 12.6961C42.1639 14.6225 41.5548 16.6435 40.8545 18.6121C40.5419 19.491 40.0787 21.1122 39.6377 21.827L50.7881 21.8299C49.0554 19.8421 47.3537 17.8276 45.6836 15.7869C45.0063 14.9748 43.6997 13.3248 42.9814 12.6961ZM17.0195 12.7362C16.0967 13.5996 15.3246 14.6277 14.4922 15.575C12.7154 17.5969 11.0099 19.8262 9.20898 21.8153L12.8193 21.828L20.3701 21.826C19.4754 19.719 18.8035 17.2474 17.9561 15.0936C17.7755 14.6345 17.252 13.1009 17.0195 12.7362ZM31.0635 12.2108C31.5409 13.231 37.8461 19.9517 39.0342 21.3983C39.3347 20.6632 39.6054 19.991 39.8633 19.2401C40.5535 17.3138 41.6133 13.9675 42.3594 12.2567C38.9298 12.2322 34.3357 12.3916 31.0635 12.2108ZM17.6426 12.2342C18.8696 15.0659 19.7464 18.4515 21.0068 21.369C22.3314 19.9392 23.6303 18.4856 24.9033 17.0096C25.8609 15.9469 28.3512 13.3106 29.0664 12.2635C25.2585 12.2274 21.4506 12.2175 17.6426 12.2342Z" fill="#A2A39C"/>
</svg>
