<svg width="62" height="61" viewBox="0 0 62 61" fill="none" xmlns="http://www.w3.org/2000/svg">
<path d="M29.2029 1.05292C30.8235 0.929312 32.9066 1.04031 34.531 1.21893C50.9052 3.01935 63.4836 18.5329 61.5203 34.9582C60.9765 39.507 58.2249 44.945 54.5915 47.8029C57.1868 52.5472 55.6511 55.3007 52.0906 58.9015C51.6185 58.3058 50.8973 57.5208 50.3845 56.9318C49.5006 57.7483 46.9818 60.3864 45.8796 60.3693C45.6259 60.3652 45.3986 60.2636 45.2244 60.0793C45.0864 59.9332 45.021 59.7535 45.0339 59.5529C45.0882 58.7302 48.4672 56.1454 49.2263 55.4396C48.0226 54.0829 46.8414 52.7066 45.6833 51.3107C45.1406 50.661 44.2503 49.6558 43.823 48.9592C43.2748 49.4877 39.9537 52.4671 39.4773 52.634C38.9234 52.6015 38.3499 52.0644 38.3552 51.509C38.8613 50.4992 41.5053 48.5196 42.529 47.59C41.9472 46.8958 41.6552 46.3148 40.9197 45.6555C45.1769 42.231 49.463 41.7864 53.2566 46.051C57.107 42.1384 59.2016 38.0678 59.3894 32.4924C59.5915 25.0937 56.8697 17.913 51.8142 12.507C46.6305 6.94963 39.4651 3.65929 31.8718 3.34979C24.1882 3.10247 16.725 5.94033 11.1472 11.2307C5.75827 16.3096 2.58914 23.3087 2.32787 30.7092C2.077 38.8805 4.69595 45.867 10.2908 51.8166C13.4776 54.9902 19.9219 59.8922 24.696 58.3615C29.0507 56.965 28.7307 49.643 28.7429 46.0461C28.7499 43.9713 28.8919 41.4772 28.0466 39.5344C27.3053 37.7474 24.3246 37.3637 22.6042 36.8195C21.7867 36.5572 20.9862 36.2442 20.2078 35.882C17.0286 34.4144 14.9771 32.2867 13.7917 28.9807C12.5627 25.5526 12.8061 23.4827 14.2732 20.2922C15.7012 22.8689 18.2346 23.2794 20.7185 24.6564C22.3901 25.5682 23.8733 26.7894 25.0876 28.256C27.0175 30.5975 28.3237 33.4627 29.1824 36.3478C29.3612 36.9487 29.5887 38.3388 29.823 38.7502C29.9647 38.6175 30.1778 35.5941 30.2331 35.2082C30.9643 30.11 33.7338 25.0112 37.7829 21.9943C40.8338 19.7212 44.08 17.9049 44.613 14.3234C45.8682 17.3082 46.8624 19.4738 47.0203 22.8371C47.1298 25.1728 46.7964 26.7088 46.2029 28.8947C44.8657 34.2108 40.4414 36.6931 35.3796 37.6965C30.734 38.6174 31.092 39.5346 30.9978 43.9348C30.9014 48.437 31.6461 55.1472 28.3171 58.6789C23.2973 64.0038 14.7209 59.0332 10.4099 55.0773C4.28412 49.5365 0.613789 42.2993 0.0749402 34.1271C-0.490436 25.5515 2.14655 17.618 7.87377 11.2404C13.3604 5.16298 21.0275 1.50119 29.2029 1.05292ZM14.5388 22.5402C14.1204 25.9963 14.1205 31.8555 24.0886 36.7199C25.1694 37.3901 26.1943 37.6161 27.4333 37.759C27.2576 37.5031 27.0485 37.0702 26.8913 36.7805C26.6275 36.3039 26.3538 35.8329 26.071 35.3674C24.8908 33.4201 23.5245 31.5916 21.991 29.9084C21.6452 29.5276 21.2965 29.1537 20.9177 28.8049C20.6091 28.5208 20.4377 28.2128 20.8572 27.9367C20.9967 27.9136 21.0772 27.9488 21.1902 28.0383C21.5913 28.3559 22.0112 28.8315 22.3611 29.2121C24.4336 31.4659 26.5381 34.3429 27.8962 37.1057C28.0509 36.6351 28.0516 36.3554 28.074 35.8693C27.9325 31.0192 24.3751 28.0381 20.6081 25.3683C20.2919 25.1637 14.8073 22.6277 14.5388 22.5402ZM45.0056 20.3459C44.7351 20.4343 39.2524 22.9694 38.9363 23.174C35.1694 25.8437 31.6119 28.8249 31.4704 33.675C31.4928 34.1608 31.4946 34.4401 31.6492 34.9103C33.0073 32.1478 35.1109 29.2705 37.1833 27.0168C37.5331 26.6363 37.9532 26.1615 38.3542 25.8439C38.4671 25.7546 38.5479 25.7184 38.6872 25.7414C39.1067 26.0175 38.9352 26.3255 38.6267 26.6096C38.2478 26.9584 37.8993 27.3332 37.5535 27.714C36.0201 29.3971 34.6535 31.2249 33.4734 33.1721C33.1905 33.6377 32.917 34.1095 32.6531 34.5861C32.4959 34.8758 32.2878 35.3087 32.112 35.5646C33.3509 35.4218 34.3751 35.1957 35.4558 34.5256C45.4238 29.6613 45.424 23.802 45.0056 20.3459Z" fill="#FEFEFE"/>
</svg>
