<svg width="60" height="60" viewBox="0 0 60 60" fill="none" xmlns="http://www.w3.org/2000/svg">
<path d="M30.1709 8.77637C30.4117 8.93872 30.7277 9.1571 31.0566 9.38477C31.697 9.82794 32.4202 10.3316 32.6543 10.4707H32.6553C36.894 12.9787 41.6766 14.4968 46.624 14.916C46.6266 15.1049 46.627 15.3086 46.624 15.5156L46.6016 16.6992C46.59 18.0036 46.5861 19.3088 46.5908 20.6133L46.6143 26.5928C46.614 28.4947 46.6299 30.312 46.3428 32.1279C45.9072 34.7743 44.9375 37.3137 43.4873 39.6025C41.377 42.8853 37.8765 45.9005 34.5537 48.1807C33.8756 48.646 33.0678 49.0667 32.2363 49.501C31.5071 49.8819 30.7528 50.2769 30.1172 50.708C30.0649 50.6795 30.0069 50.6494 29.9473 50.6152C29.7669 50.5119 29.5241 50.3659 29.4023 50.3018C21.8133 46.3029 14.8906 40.0378 13.8271 31.5693C13.6392 30.073 13.6754 28.3579 13.6758 26.7461L13.6914 20.125V20.124C13.6916 18.6276 13.7427 16.5447 13.6445 14.9111C18.5064 14.64 23.5165 12.7278 27.5938 10.377C28.4888 9.86089 29.295 9.25329 30.0791 8.71582C30.1078 8.73501 30.1388 8.75473 30.1709 8.77637Z" stroke="#969590" stroke-width="1.2"/>
<path d="M23.3914 29.3296L27.6067 33.5449C27.9972 33.9355 28.6304 33.9355 29.0209 33.5449L38.1586 24.4072" stroke="#969590" stroke-width="1.2" stroke-linecap="round"/>
</svg>
