<svg width="60" height="61" viewBox="0 0 60 61" fill="none" xmlns="http://www.w3.org/2000/svg">
<path d="M3.41699 12.912C3.94826 12.8874 4.12227 12.886 4.5625 13.2089C5.58076 13.9556 6.58975 14.7266 7.59082 15.4969C16.8315 22.6081 29.669 31.8632 27.5137 45.2225C27.2596 46.7969 26.7233 48.3043 26.2988 49.829L26.2725 49.7948C26.5982 50.2331 26.9312 50.9462 27.0361 51.4862C27.4327 51.4493 27.8288 51.405 28.2236 51.3524C28.6568 49.633 29.1388 47.9119 30.2256 46.4745C32.8396 43.0176 37.3425 41.8685 41.3936 41.1219C42.4183 40.9331 43.4489 40.7306 44.4814 40.5897C45.2178 40.4892 47.1857 40.091 47.7686 40.5858C47.8926 40.6912 47.9485 40.8078 47.9658 40.9686C48.0569 41.8171 45.5867 44.6562 44.9863 45.4276C41.9528 49.2935 38.1177 53.4656 32.8135 53.5214C31.656 53.5358 30.5293 53.0647 29.4424 52.8495C29.5526 52.8713 27.4525 53.2716 27.3369 53.288C27.3999 54.0539 27.4014 54.7597 27.4951 55.5487C27.6198 56.5981 27.8473 57.7704 27.8262 58.8163C27.1357 59.4175 26.8725 59.5014 26.1699 58.8807C25.6641 57.0686 25.6235 54.9636 25.5449 53.1024C25.5236 52.5984 25.284 51.5451 24.998 51.1073C24.8604 51.0111 24.4859 50.8885 24.3379 50.8573C22.6597 50.5038 21.0055 50.1801 19.3955 49.5614C9.86303 45.898 6.64042 35.5547 4.83008 26.4491C4.67363 25.6619 4.59016 24.8565 4.4375 24.0682C3.86004 20.5806 3.21722 17.0061 2.93164 13.4833C3.11174 13.1943 3.16179 13.1376 3.41699 12.912ZM44.9385 42.3456C39.2061 43.5 32.5039 43.669 30.3623 50.2997C31.9252 49.4971 33.3835 49.1031 34.8311 47.9442C35.7708 47.1918 36.6892 46.4083 37.6533 45.7001C37.9378 45.5147 38.3822 45.6506 38.6631 45.7831C38.825 46.0691 38.9623 46.338 38.8662 46.6727C38.5769 47.6796 34.7704 50.2094 33.7344 50.7538C33.1278 51.0725 32.4861 51.3404 31.8916 51.6776C36.0661 51.5449 38.1562 50.3457 41.0117 47.2821C41.55 46.7047 44.9881 42.697 45.0068 42.3846L44.9385 42.3456ZM4.99414 15.8319C6.35951 25.3752 7.89286 39.4644 16.0928 45.6708C18.5155 47.5044 20.9026 48.2686 23.8184 48.8827C23.457 48.2351 23.0569 47.1595 22.7471 46.4354C22.2247 45.2431 21.6791 44.0609 21.1094 42.8905C18.7328 37.9966 15.8859 33.3446 12.6104 29.0009C11.8721 28.0184 11.1257 27.0522 10.3018 26.1385C9.63055 25.3943 9.29055 24.6234 10.3496 24.0594C10.6869 24.0353 10.8702 24.138 11.1191 24.3759C12.0033 25.2203 12.8983 26.4438 13.6465 27.4266C18.0778 33.247 22.4451 40.5568 25.0645 47.4296C25.5367 46.3444 25.6019 45.6799 25.7627 44.5282C27.3486 33.1716 16.8868 25.0237 8.99609 18.8085C8.2885 18.2511 5.61347 16.0996 4.99414 15.8319Z" fill="#FEFEFE"/>
<path d="M39.8979 1.38061C42.1275 1.00003 46.1075 2.1957 48.0648 3.37415C50.9811 5.12851 53.1884 7.85159 54.3011 11.0678C54.5673 11.8522 54.8299 13.151 55.0403 14.0028C55.5788 12.7109 56.3936 12.4223 57.0681 13.8225C56.6956 14.6394 55.0747 17.8973 54.3975 18.2327C54.2107 18.3252 54.0083 18.3456 53.8107 18.2741C53.0987 18.0162 51.5299 14.659 51.1325 13.7705C51.4664 13.1731 51.687 12.8117 52.4247 12.9691C52.7887 13.177 52.9923 13.4864 53.2528 13.8141C53.0649 13.1743 52.8682 12.5372 52.6629 11.9028C50.1154 4.24007 41.3879 0.823084 34.3487 5.00371C33.796 5.33196 33.1547 5.824 32.5576 6.02502C32.416 6.02292 32.2724 5.96942 32.1666 5.87587C30.9444 4.79599 32.5614 3.93874 33.3509 3.45857C35.4084 2.20715 37.54 1.63329 39.8979 1.38061Z" fill="#FEFEFE"/>
<path d="M27.2168 12.9131C27.3223 12.9131 27.8088 12.9122 27.8502 12.9669C28.6529 14.0252 30.063 16.4193 30.4489 17.6283C29.6157 18.6205 29.1457 18.4485 28.339 17.5658C28.5596 18.3339 28.8025 19.1914 29.0726 19.9402C30.1872 23.0274 32.4885 25.5417 35.4654 26.9245C39.044 28.6035 43.58 28.4758 46.9768 26.4256C47.6024 26.048 48.3603 25.4779 49.0237 25.2402L49.054 25.2296C50.1887 26.0044 49.9721 26.5712 48.9985 27.3035C47.1716 28.5724 45.0847 29.4182 42.8898 29.7792C35.9724 30.9202 29.0745 26.3773 27.0989 19.7368C26.8724 18.9756 26.7609 18.1014 26.6338 17.3144C26.2704 18.0436 25.403 18.8527 24.7648 17.9106C24.6522 17.7438 24.6127 17.5382 24.6555 17.3416C24.782 16.7723 26.6956 13.2357 27.2168 12.9131Z" fill="#FEFEFE"/>
</svg>
