<svg width="60" height="61" viewBox="0 0 60 61" fill="none" xmlns="http://www.w3.org/2000/svg">
<path d="M38.4322 15.2324C39.3007 15.2894 39.6167 15.7572 39.8107 16.5819C41.6168 24.2584 42.3327 36.7411 32.8895 39.597C32.1823 39.8108 28.6068 40.6915 28.0306 40.1327C26.2189 38.3753 28.7726 37.8843 30.1151 37.8305C32.2696 37.6115 34.8274 36.6202 36.1207 34.8124C39.6476 29.882 38.5972 23.954 37.9163 18.4384C37.4116 18.7895 36.5838 19.4123 36.043 19.6483C31.4734 21.643 25.0312 20.2255 22.7873 25.7863C21.2451 29.6084 21.5387 31.525 22.9537 35.1972C23.3122 34.5922 23.7003 33.9828 24.072 33.384C25.2475 31.5393 30.9497 25.6358 32.7766 24.5236C33.6673 24.725 34.8965 25.2337 34.0357 26.4456C33.3521 27.2467 32.3604 27.8648 31.6116 28.6017C27.8254 32.3284 23.8453 36.6982 22.1891 41.8768C21.9465 42.6192 21.7446 43.3742 21.584 44.1385C21.4606 44.7128 21.3953 45.4186 21.1656 45.9566C21.0615 46.2002 20.8515 46.3601 20.6085 46.451C20.3213 46.5583 19.9782 46.6108 19.6951 46.4664C19.4302 46.3314 19.2691 46.0689 19.1798 45.7938C18.6023 44.0159 20.8439 38.9716 21.6846 37.2912C21.1539 36.5077 20.6311 35.5575 20.301 34.6717C19.0958 31.4694 19.238 27.9158 20.6951 24.8201C23.7918 18.0701 29.7329 19.4151 35.6175 17.1342C36.5023 16.7913 37.5452 15.562 38.4322 15.2324Z" fill="#FEFEFE"/>
<path d="M38.8254 7.05371C38.8385 7.05406 38.8515 7.05467 38.8644 7.05458C40.7284 7.04283 44.5162 9.65954 45.9538 10.9261C47.1051 11.9405 48.7378 13.5361 49.6903 14.7349C52.8237 18.6788 54.6536 23.7652 54.9543 28.7771C55.3178 34.8366 53.52 41.6565 49.4117 46.2627C43.7711 52.5869 38.4218 54.9289 29.9766 55.3961C30.6273 56.3595 32.8536 58.7091 32.7336 59.7471C32.7031 60.0106 32.5715 60.2281 32.3622 60.3879C32.1175 60.5748 31.8259 60.6532 31.5209 60.6022C30.4712 60.4265 27.9379 56.6799 27.2464 55.7043C26.8906 55.2238 26.27 54.6896 26.0806 54.1351C26.1038 53.3572 31.6092 49.3073 32.4852 48.5434C32.8268 48.2454 33.892 49.243 34.0205 49.8898C33.9184 50.5497 31.2264 52.513 30.5192 53.074C34.1891 52.777 36.7737 52.3654 40.1289 50.6739C40.7973 50.3369 41.8963 49.8389 42.4797 49.4019C44.9299 47.4713 47.7336 44.9771 49.4014 42.3103C53.2796 36.1091 53.7482 27.7623 50.7723 21.1102C50.3276 20.1827 49.9145 19.1303 49.345 18.2784C47.487 15.4987 45.0817 13.2543 42.4833 11.1856C41.4535 10.3657 35.763 8.79551 38.8254 7.05371Z" fill="#FEFEFE"/>
<path d="M28.0323 0.00301249C28.6183 -0.0231938 29.034 0.117501 29.42 0.585732C30.6922 2.12903 31.9203 3.70759 33.1098 5.31601C33.4089 5.72051 33.7363 6.07051 33.9429 6.53552C33.8812 6.86044 33.5598 7.18049 33.3328 7.40616C32.2849 8.44805 30.9861 9.33323 29.8407 10.2731C29.1895 10.8074 28.5272 11.5213 27.8191 11.9585C27.6898 12.0383 27.5337 12.0576 27.3843 12.0537C27.0032 12.044 26.6264 11.8253 26.372 11.5508C26.1585 11.3203 26.0111 11.0309 26.0449 10.7087C26.1166 10.0252 28.8729 8.08447 29.5569 7.53971L28.1459 7.669C15.2945 8.89783 6.12493 19.754 7.39624 32.6607C8.17163 40.5329 11.5684 44.6072 17.3721 49.3828C18.6556 50.2949 20.1273 50.6767 21.431 51.5397C22.2482 52.0807 21.6505 53.598 20.8328 53.4616C18.3363 53.0452 15.6131 51.1181 13.6945 49.4625C12.4838 48.2215 11.0831 47.0221 10.0215 45.6535C6.87368 41.5949 5.21415 36.4392 5.01913 31.3443C4.77013 24.8366 6.95091 17.9295 11.6313 13.2951C12.6169 12.3192 13.5592 11.2877 14.642 10.422C19.2269 6.89605 24.3589 5.44521 30.066 5.27187L27.8303 2.3217C27.1417 1.39909 27.034 0.69613 28.0323 0.00301249Z" fill="#FEFEFE"/>
</svg>
