<svg width="148" height="32" viewBox="0 0 148 32" fill="none" xmlns="http://www.w3.org/2000/svg">
<path d="M13.2585 14.3792C10.9375 14.4125 8.62436 14.1005 6.39294 13.4526C4.64233 12.9798 3.02691 12.0938 1.67824 10.8671C1.15237 10.416 0.7298 9.85411 0.439941 9.22053C0.150082 8.58676 0 7.89663 0 7.19816C0 6.49951 0.150082 5.80938 0.439941 5.1758C0.7298 4.54223 1.15237 3.98012 1.67824 3.5292C3.02882 2.30099 4.64691 1.41503 6.4002 0.943768C8.6278 0.287337 10.939 -0.0299333 13.2585 0.00222001C17.2903 0.00222001 20.3793 0.482968 22.5254 1.44427V4.64256H21.509C20.9245 3.9102 19.8294 3.36476 18.2235 3.00604C16.5928 2.64228 14.9279 2.45943 13.2585 2.46059C10.9766 2.37498 8.70647 2.83035 6.62857 3.79069C4.91958 4.67239 4.06509 5.8057 4.06509 7.19061C4.06509 8.60303 4.89018 9.74622 6.52546 10.6206C8.16074 11.4947 10.4223 11.9282 13.2953 11.9282C14.3591 11.9228 15.421 11.8302 16.4702 11.6518C17.3675 11.5303 18.2401 11.2654 19.0559 10.8671V8.23676H9.47942V6.05479H22.5622L22.938 13.0042C19.8107 14.0114 16.5382 14.4762 13.2585 14.3792Z" fill="white"/>
<path d="M47.3041 12.367C44.9762 13.707 41.9904 14.377 38.3465 14.377C34.7025 14.377 31.7141 13.707 29.3815 12.367C27.0537 11.022 25.8896 9.29579 25.8896 7.18859C25.8896 5.08138 27.0537 3.35769 29.3815 2.01752C31.7141 0.672506 34.7025 0 38.3465 0C41.9904 0 44.9762 0.672506 47.3041 2.01752C49.6417 3.36273 50.8082 5.08623 50.8032 7.18859C50.7982 9.29075 49.6319 11.017 47.3041 12.367ZM37.956 11.9262C40.1556 12.012 42.3427 11.5529 44.328 10.5885C45.9682 9.69674 46.7908 8.54115 46.7958 7.12137C46.7788 6.41187 46.568 5.72135 46.1869 5.12632C45.8059 4.53129 45.2693 4.05538 44.6375 3.75128C42.8189 2.80334 40.7865 2.35746 38.7443 2.45857C36.5528 2.37489 34.3738 2.83123 32.3943 3.78866C30.754 4.67036 29.9314 5.82362 29.9265 7.24824C29.9374 7.96007 30.1438 8.65466 30.5224 9.25395C30.9011 9.85343 31.4371 10.3336 32.0703 10.6408C33.8865 11.5868 35.9169 12.0302 37.956 11.9262Z" fill="white"/>
<path d="M58.2665 11.3601H73.633V13.8186H54.5317V0.569916H58.2665V11.3601Z" fill="white"/>
<path d="M76.7095 13.8179V0.569213H86.2049C88.3256 0.535897 90.4404 0.802617 92.4885 1.36123C94.0819 1.76625 95.5553 2.55594 96.7833 3.6629C97.2698 4.10918 97.6588 4.65384 97.925 5.26204C98.1911 5.87025 98.3286 6.52823 98.3286 7.19357C98.3286 7.85891 98.1911 8.51689 97.925 9.12509C97.6588 9.73329 97.2698 10.278 96.7833 10.7242C95.5553 11.8312 94.0819 12.6207 92.4885 13.0257C90.4396 13.5805 88.3254 13.847 86.2049 13.8179H76.7095ZM81.5051 11.3594H85.8293C87.9485 11.4587 90.0638 11.0944 92.0319 10.2909C93.5051 9.54366 94.2418 8.54226 94.3227 7.18989C94.3817 5.96438 93.7556 4.94807 92.4444 4.20079C91.1331 3.45352 89.2179 3.04269 86.6911 3.04269H80.3486V10.2311C80.331 10.3876 80.3491 10.546 80.4016 10.6942C80.4542 10.8424 80.5397 10.9764 80.6516 11.0855C80.7635 11.1947 80.8989 11.2763 81.0469 11.3237C81.1948 11.3712 81.3516 11.3834 81.5051 11.3594Z" fill="white"/>
<path d="M102.05 13.8186V0.569916H121.343V3.03584H105.696V5.87541H118.727V8.11703H105.696V11.3302H121.343V13.7886L102.05 13.8186Z" fill="white"/>
<path d="M124.979 13.8186V0.569916H129.06L144.191 10.471V0.569916H147.829V13.8186H143.815L128.618 4.24643V13.8186H124.979Z" fill="white"/>
<path d="M8.01128 21.9763V23.4111C7.1312 22.9544 6.16309 22.6993 5.17532 22.6639C4.69947 22.6499 4.2265 22.7448 3.79171 22.9414C3.35692 23.138 2.97121 23.4313 2.66321 23.7997C1.98553 24.6022 1.63266 25.6355 1.6762 26.6916C1.65653 27.2261 1.74494 27.7594 1.93627 28.258C2.1276 28.7567 2.41764 29.2102 2.78847 29.5908C3.15967 29.966 3.60305 30.2598 4.09093 30.4539C4.5788 30.648 5.10085 30.7382 5.62462 30.719C5.95783 30.7127 6.29008 30.6826 6.61908 30.6294V27.9916H4.77013V26.8409H8.09969V31.4739C7.14991 31.7979 6.15527 31.9668 5.15317 31.9744C4.46901 32.0027 3.78655 31.8893 3.14688 31.6414C2.50739 31.3935 1.92424 31.0162 1.43312 30.5323C0.95556 30.0419 0.582253 29.4573 0.336312 28.8146C0.0905621 28.172 -0.0224787 27.4849 0.00406305 26.7961C-0.0234335 26.0936 0.0888446 25.3928 0.334404 24.7354C0.579963 24.0782 0.953651 23.4778 1.43312 22.9701C1.92309 22.4816 2.50682 22.1002 3.14783 21.8496C3.78904 21.5991 4.47397 21.4845 5.16043 21.5131C6.12815 21.5246 7.08862 21.6807 8.01128 21.9763Z" fill="white"/>
<path d="M19.7734 31.7463V21.7633H22.521C23.3268 21.7172 24.1343 21.8133 24.9078 22.0473C25.34 22.1968 25.7129 22.4844 25.9705 22.8672C26.2281 23.2497 26.3566 23.7064 26.3369 24.1694C26.3568 24.7855 26.184 25.3924 25.8433 25.9029C25.3984 26.4616 24.8307 26.9069 24.1859 27.2032L27.5819 31.7463H25.777L22.6684 27.5918H21.2835V31.7463H19.7734ZM21.2835 26.441H22.0938C22.7784 26.4763 23.4559 26.2849 24.0238 25.8954C24.2594 25.728 24.45 25.5037 24.5787 25.2428C24.7072 24.9819 24.7698 24.6925 24.7604 24.401C24.7874 24.1731 24.7513 23.942 24.6564 23.7334C24.5615 23.525 24.4112 23.3473 24.2227 23.2203C23.5997 22.9541 22.9224 22.8439 22.2485 22.8991H21.2835V26.441Z" fill="white"/>
<path d="M37.7268 26.748C37.6557 25.3824 38.0627 24.0353 38.8759 22.9446C39.2656 22.4985 39.7443 22.1416 40.2801 21.8971C40.8161 21.6527 41.397 21.5262 41.9845 21.5262C42.5721 21.5262 43.1529 21.6527 43.6889 21.8971C44.2247 22.1416 44.7035 22.4985 45.0932 22.9446C45.8419 24.0704 46.2419 25.3976 46.2419 26.7556C46.2419 28.1135 45.8419 29.4405 45.0932 30.5665C44.7035 31.0124 44.2247 31.3694 43.6889 31.614C43.1529 31.8584 42.5721 31.9849 41.9845 31.9849C41.397 31.9849 40.8161 31.8584 40.2801 31.614C39.7443 31.3694 39.2656 31.0124 38.8759 30.5665C38.0623 29.4702 37.6554 28.1184 37.7268 26.748ZM39.3327 26.748C39.2784 27.7901 39.516 28.8261 40.0178 29.7371C40.2339 30.0639 40.5261 30.3315 40.8684 30.5165C41.2108 30.7017 41.5929 30.7985 41.9809 30.7985C42.3689 30.7985 42.7508 30.7017 43.0932 30.5165C43.4356 30.3315 43.7277 30.0639 43.944 29.7371C44.3996 28.7979 44.6366 27.7649 44.6366 26.7182C44.6366 25.6714 44.3996 24.6385 43.944 23.6992C43.7277 23.3725 43.4356 23.1048 43.0932 22.9196C42.7508 22.7346 42.3689 22.6378 41.9809 22.6378C41.5929 22.6378 41.2108 22.7346 40.8684 22.9196C40.5261 23.1048 40.2339 23.3725 40.0178 23.6992C39.503 24.6269 39.2649 25.686 39.3327 26.748Z" fill="white"/>
<path d="M57.3047 21.766H58.8222V27.8261C58.7597 28.6259 58.9314 29.4266 59.3158 30.1276C59.5023 30.3724 59.7463 30.5657 60.0257 30.6897C60.3049 30.8137 60.6106 30.8646 60.9144 30.8375C61.2317 30.8693 61.5519 30.8218 61.8471 30.6994C62.1425 30.577 62.4038 30.3833 62.6087 30.1351C63.0074 29.4255 63.187 28.6108 63.1242 27.7963V21.766H64.4429V27.5646C64.5034 28.4839 64.352 29.4049 64.0009 30.2547C63.7121 30.8135 63.2693 31.2748 62.7265 31.5826C62.1836 31.8904 61.5642 32.0314 60.9438 31.9884C60.4422 32.0299 59.9377 31.9598 59.4656 31.7829C58.9936 31.6061 58.5653 31.3268 58.2107 30.9645C57.5501 30.0532 57.2338 28.9317 57.3194 27.8038L57.3047 21.766Z" fill="white"/>
<path d="M76.772 31.7492V21.766H79.969C80.7962 21.72 81.6247 21.8264 82.4147 22.0797C82.8919 22.2866 83.2919 22.6422 83.5567 23.0949C83.8216 23.5476 83.9375 24.074 83.888 24.598C83.9041 25.0776 83.8029 25.5538 83.5934 25.984C83.3837 26.4144 83.0725 26.7854 82.6872 27.0639C81.7047 27.7135 80.5432 28.0277 79.3723 27.9607H78.2673V31.7492H76.772ZM78.2453 26.8098H79.1882C81.2287 26.8098 82.2526 26.0627 82.2526 24.628C82.2736 24.3773 82.2319 24.1255 82.1315 23.8956C82.0311 23.6657 81.8751 23.4652 81.678 23.3128C81.0832 23.0023 80.4151 22.8652 79.7481 22.9167H78.2747L78.2453 26.8098Z" fill="white"/>
</svg>
