<svg width="202" height="124" viewBox="0 0 202 124" fill="none" xmlns="http://www.w3.org/2000/svg">
<path d="M0 123.383V0.0258458H88.3827C108.122 -0.28435 127.806 2.19904 146.869 7.40023C161.701 11.1713 175.415 18.524 186.845 28.8308C191.373 32.986 194.994 38.0573 197.471 43.7202C199.949 49.3831 201.228 55.5094 201.228 61.7043C201.228 67.8992 199.949 74.0256 197.471 79.6885C194.994 85.3514 191.373 90.4227 186.845 94.5779C175.415 104.885 161.701 112.236 146.869 116.007C127.798 121.172 108.12 123.653 88.3827 123.383H0ZM44.6376 100.491H84.8867C104.611 101.417 124.301 98.0243 142.619 90.5435C156.332 83.5858 163.189 74.2619 163.942 61.6701C164.491 50.2596 158.663 40.7968 146.459 33.839C134.254 26.8813 116.427 23.0561 92.9078 23.0561H33.8722V89.9863C33.7087 91.4435 33.8776 92.9187 34.3663 94.2984C34.8551 95.678 35.6513 96.926 36.6928 97.9413C37.7343 98.9585 38.9945 99.7178 40.3719 100.16C41.7493 100.601 43.2086 100.715 44.6376 100.491Z" fill="#C19B4D"/>
<path d="M0 123.383V0.0258458H88.3827C108.122 -0.28435 127.806 2.19904 146.869 7.40023C161.701 11.1713 175.415 18.524 186.845 28.8308C191.373 32.986 194.994 38.0573 197.471 43.7202C199.949 49.3831 201.228 55.5094 201.228 61.7043C201.228 67.8992 199.949 74.0256 197.471 79.6885C194.994 85.3514 191.373 90.4227 186.845 94.5779C175.415 104.885 161.701 112.236 146.869 116.007C127.798 121.172 108.12 123.653 88.3827 123.383H0ZM44.6376 100.491H84.8867C104.611 101.417 124.301 98.0243 142.619 90.5435C156.332 83.5858 163.189 74.2619 163.942 61.6701C164.491 50.2596 158.663 40.7968 146.459 33.839C134.254 26.8813 116.427 23.0561 92.9078 23.0561H33.8722V89.9863C33.7087 91.4435 33.8776 92.9187 34.3663 94.2984C34.8551 95.678 35.6513 96.926 36.6928 97.9413C37.7343 98.9585 38.9945 99.7178 40.3719 100.16C41.7493 100.601 43.2086 100.715 44.6376 100.491Z" fill="url(#paint0_linear_4350_398)"/>
<defs>
<linearGradient id="paint0_linear_4350_398" x1="100.614" y1="0" x2="100.614" y2="123.403" gradientUnits="userSpaceOnUse">
<stop stop-color="#C19B4D"/>
<stop offset="1" stop-color="#9C7013"/>
</linearGradient>
</defs>
</svg>
