<svg width="214" height="134" viewBox="0 0 214 134" fill="none" xmlns="http://www.w3.org/2000/svg">
<path d="M123.408 133.883C101.805 134.193 80.2746 131.288 59.5048 125.255C43.2103 120.853 28.1741 112.604 15.6209 101.182C10.7261 96.9822 6.7929 91.7503 4.09492 85.8512C1.39694 79.9502 0 73.5245 0 67.0212C0 60.5161 1.39694 54.0903 4.09492 48.1912C6.7929 42.2921 10.7261 37.0584 15.6209 32.86C28.1919 21.4242 43.2529 13.1751 59.5723 8.7873C80.3065 2.67536 101.819 -0.278705 123.408 0.0206703C160.937 0.0206703 189.688 4.49686 209.664 13.4475V43.2263H200.203C194.763 36.4074 184.57 31.3288 169.622 27.9888C154.444 24.6019 138.948 22.8994 123.408 22.9102C102.169 22.1131 81.0388 26.3531 61.698 35.2946C45.7909 43.504 37.8374 54.0561 37.8374 66.9509C37.8374 80.1017 45.5172 90.7458 60.7382 98.8866C75.9592 107.026 97.0099 111.062 123.751 111.062C133.653 111.011 143.537 110.149 153.303 108.488C161.655 107.357 169.777 104.89 177.37 101.182V76.6914H88.2334V56.3753H210.007L213.504 121.08C184.395 130.458 153.936 134.786 123.408 133.883Z" fill="#C19B4D"/>
<path d="M123.408 133.883C101.805 134.193 80.2746 131.288 59.5048 125.255C43.2103 120.853 28.1741 112.604 15.6209 101.182C10.7261 96.9822 6.7929 91.7503 4.09492 85.8512C1.39694 79.9502 0 73.5245 0 67.0212C0 60.5161 1.39694 54.0903 4.09492 48.1912C6.7929 42.2921 10.7261 37.0584 15.6209 32.86C28.1919 21.4242 43.2529 13.1751 59.5723 8.7873C80.3065 2.67536 101.819 -0.278705 123.408 0.0206703C160.937 0.0206703 189.688 4.49686 209.664 13.4475V43.2263H200.203C194.763 36.4074 184.57 31.3288 169.622 27.9888C154.444 24.6019 138.948 22.8994 123.408 22.9102C102.169 22.1131 81.0388 26.3531 61.698 35.2946C45.7909 43.504 37.8374 54.0561 37.8374 66.9509C37.8374 80.1017 45.5172 90.7458 60.7382 98.8866C75.9592 107.026 97.0099 111.062 123.751 111.062C133.653 111.011 143.537 110.149 153.303 108.488C161.655 107.357 169.777 104.89 177.37 101.182V76.6914H88.2334V56.3753H210.007L213.504 121.08C184.395 130.458 153.936 134.786 123.408 133.883Z" fill="url(#paint0_linear_4350_395)"/>
<defs>
<linearGradient id="paint0_linear_4350_395" x1="106.752" y1="0" x2="106.752" y2="134" gradientUnits="userSpaceOnUse">
<stop stop-color="#C19B4D"/>
<stop offset="1" stop-color="#9C7013"/>
</linearGradient>
</defs>
</svg>
