<svg width="232" height="134" viewBox="0 0 232 134" fill="none" xmlns="http://www.w3.org/2000/svg">
<path d="M199.323 115.148C177.656 127.624 149.864 133.862 115.947 133.862C82.0287 133.862 54.2136 127.624 32.5019 115.148C10.8345 102.624 0 86.5519 0 66.932C0 47.3121 10.8345 31.263 32.5019 18.7849C54.2136 6.26162 82.0287 0 115.947 0C149.864 0 177.656 6.26162 199.323 18.7849C221.081 31.3099 231.939 47.3572 231.893 66.932C231.846 86.505 220.991 102.577 199.323 115.148ZM112.313 111.043C132.786 111.842 153.143 107.568 171.622 98.5882C186.889 90.285 194.546 79.5256 194.592 66.3062C194.434 59.7001 192.472 53.2707 188.924 47.7305C185.378 42.1903 180.384 37.7592 174.503 34.9277C157.576 26.1016 138.658 21.95 119.649 22.8914C99.251 22.1123 78.97 26.3612 60.5445 35.2758C45.2773 43.4851 37.6206 54.223 37.5743 67.4874C37.6756 74.1152 39.5969 80.5824 43.1214 86.1623C46.6458 91.744 51.6347 96.2148 57.5283 99.0751C74.4342 107.883 93.3325 112.011 112.313 111.043Z" fill="#C19B4D"/>
<path d="M199.323 115.148C177.656 127.624 149.864 133.862 115.947 133.862C82.0287 133.862 54.2136 127.624 32.5019 115.148C10.8345 102.624 0 86.5519 0 66.932C0 47.3121 10.8345 31.263 32.5019 18.7849C54.2136 6.26162 82.0287 0 115.947 0C149.864 0 177.656 6.26162 199.323 18.7849C221.081 31.3099 231.939 47.3572 231.893 66.932C231.846 86.505 220.991 102.577 199.323 115.148ZM112.313 111.043C132.786 111.842 153.143 107.568 171.622 98.5882C186.889 90.285 194.546 79.5256 194.592 66.3062C194.434 59.7001 192.472 53.2707 188.924 47.7305C185.378 42.1903 180.384 37.7592 174.503 34.9277C157.576 26.1016 138.658 21.95 119.649 22.8914C99.251 22.1123 78.97 26.3612 60.5445 35.2758C45.2773 43.4851 37.6206 54.223 37.5743 67.4874C37.6756 74.1152 39.5969 80.5824 43.1214 86.1623C46.6458 91.744 51.6347 96.2148 57.5283 99.0751C74.4342 107.883 93.3325 112.011 112.313 111.043Z" fill="url(#paint0_linear_4350_396)"/>
<defs>
<linearGradient id="paint0_linear_4350_396" x1="115.946" y1="0" x2="115.946" y2="133.862" gradientUnits="userSpaceOnUse">
<stop stop-color="#C19B4D"/>
<stop offset="1" stop-color="#9C7013"/>
</linearGradient>
</defs>
</svg>
